<?xml version="1.0" standalone="no"?>
 <!DOCTYPE svg PUBLIC "-//W3C//DTD SVG 1.1//EN" 
 "http://www.w3.org/Graphics/SVG/1.1/DTD/svg11.dtd"> 
<svg
  xmlns:svg="http://www.w3.org/2000/svg"
  xmlns="http://www.w3.org/2000/svg"
  xmlns:xlink="http://www.w3.org/1999/xlink"
  version="1.1"
  width="29.700220cm" height="21.000720cm" viewBox="0 0 116930 82680">
<title>SVG Picture created as Power-Power.svg date 2021/04/06 20:05:00 </title>
  <desc>Picture generated by Eeschema-SVG </desc>
<g style="fill:#000000; fill-opacity:1;stroke:#000000; stroke-opacity:1;
stroke-linecap:round; stroke-linejoin:round;"
 transform="translate(0 0) scale(1 1)">
</g>
<g style="fill:#000000; fill-opacity:0.0; 
stroke:#000000; stroke-width:0; stroke-opacity:1; 
stroke-linecap:round; stroke-linejoin:round;">
<g >
</g>
<g style="fill:#840000; fill-opacity:0.0; 
stroke:#840000; stroke-width:0; stroke-opacity:1; 
stroke-linecap:round; stroke-linejoin:round;">
</g>
<g style="fill:#840000; fill-opacity:0.0; 
stroke:#840000; stroke-width:60; stroke-opacity:1; 
stroke-linecap:round; stroke-linejoin:round;">
<path style="fill:#840000; fill-opacity:0.0; 
stroke:#840000; stroke-width:60; stroke-opacity:1; 
stroke-linecap:round; stroke-linejoin:round;fill:none"
d="M 75500,36500
75500,37000
76000,37000
75500,37500
75000,37000
75500,37000
" /> 
</g>
<g style="fill:#008484; fill-opacity:0.0; 
stroke:#008484; stroke-width:60; stroke-opacity:1; 
stroke-linecap:round; stroke-linejoin:round;">
<text x="75550" y="38500"
textLength="1580" font-size="660" lengthAdjust="spacingAndGlyphs"
text-anchor="middle" opacity="0">GND</text>
<path d="M75160 38000
L75120 37970
L75050 37970
L74970 38000
L74930 38040
L74900 38090
L74880 38190
L74880 38260
L74900 38350
L74930 38400
L74970 38450
L75050 38470
L75090 38470
L75160 38450
L75190 38420
L75190 38260
L75090 38260
" />
<path d="M75400 38470
L75400 37970
L75690 38470
L75690 37970
" />
<path d="M75930 38470
L75930 37970
L76050 37970
L76120 38000
L76160 38040
L76190 38090
L76210 38190
L76210 38260
L76190 38350
L76160 38400
L76120 38450
L76050 38470
L75930 38470
" />
</g>
</g>
<g style="fill:#008484; fill-opacity:0.0; 
stroke:#008484; stroke-width:0; stroke-opacity:1; 
stroke-linecap:round; stroke-linejoin:round;">
<g >
</g>
<g style="fill:#840000; fill-opacity:0.0; 
stroke:#840000; stroke-width:0; stroke-opacity:1; 
stroke-linecap:round; stroke-linejoin:round;">
</g>
<g style="fill:#840000; fill-opacity:0.0; 
stroke:#840000; stroke-width:100; stroke-opacity:1; 
stroke-linecap:round; stroke-linejoin:round;">
<rect x="54100" y="32500" width="800" height="2000" rx="0" />
</g>
<g style="fill:#840000; fill-opacity:0.0; 
stroke:#840000; stroke-width:60; stroke-opacity:1; 
stroke-linecap:round; stroke-linejoin:round;">
<path d="M54500 34500
L54500 35000
" />
<path d="M54500 32500
L54500 32000
" />
</g>
<g style="fill:#008484; fill-opacity:0.0; 
stroke:#008484; stroke-width:60; stroke-opacity:1; 
stroke-linecap:round; stroke-linejoin:round;">
<g transform="rotate(-90 56540 33500)">
<text x="56540" y="33750"
textLength="1040" font-size="660" lengthAdjust="spacingAndGlyphs"
text-anchor="middle" opacity="0">R4</text>
</g>
<path d="M56760 33580
L56520 33750
" />
<path d="M56760 33860
L56260 33860
L56260 33670
L56290 33630
L56310 33600
L56360 33580
L56430 33580
L56480 33600
L56500 33630
L56520 33670
L56520 33860
" />
<path d="M56430 33150
L56760 33150
" />
<path d="M56240 33270
L56590 33390
L56590 33080
" />
<g transform="rotate(-90 55630 33500)">
<text x="55630" y="33750"
textLength="1990" font-size="660" lengthAdjust="spacingAndGlyphs"
text-anchor="middle" opacity="0">220R</text>
</g>
<path d="M55400 34360
L55380 34340
L55350 34290
L55350 34170
L55380 34130
L55400 34100
L55450 34080
L55490 34080
L55570 34100
L55850 34390
L55850 34080
" />
<path d="M55400 33890
L55380 33860
L55350 33820
L55350 33700
L55380 33650
L55400 33630
L55450 33600
L55490 33600
L55570 33630
L55850 33910
L55850 33600
" />
<path d="M55350 33290
L55350 33250
L55380 33200
L55400 33170
L55450 33150
L55540 33130
L55660 33130
L55760 33150
L55800 33170
L55830 33200
L55850 33250
L55850 33290
L55830 33340
L55800 33360
L55760 33390
L55660 33410
L55540 33410
L55450 33390
L55400 33360
L55380 33340
L55350 33290
" />
<path d="M55850 32630
L55610 32790
" />
<path d="M55850 32910
L55350 32910
L55350 32720
L55380 32670
L55400 32650
L55450 32630
L55520 32630
L55570 32650
L55590 32670
L55610 32720
L55610 32910
" />
</g>
</g>
<g style="fill:#008484; fill-opacity:0.0; 
stroke:#008484; stroke-width:0; stroke-opacity:1; 
stroke-linecap:round; stroke-linejoin:round;">
<g >
</g>
<g style="fill:#840000; fill-opacity:0.0; 
stroke:#840000; stroke-width:0; stroke-opacity:1; 
stroke-linecap:round; stroke-linejoin:round;">
</g>
<g style="fill:#840000; fill-opacity:0.0; 
stroke:#840000; stroke-width:60; stroke-opacity:1; 
stroke-linecap:round; stroke-linejoin:round;">
<path style="fill:#840000; fill-opacity:0.0; 
stroke:#840000; stroke-width:60; stroke-opacity:1; 
stroke-linecap:round; stroke-linejoin:round;fill:none"
d="M 40000,42500
40000,43000
40500,43000
40000,43500
39500,43000
40000,43000
" /> 
</g>
<g style="fill:#008484; fill-opacity:0.0; 
stroke:#008484; stroke-width:60; stroke-opacity:1; 
stroke-linecap:round; stroke-linejoin:round;">
<text x="40050" y="44500"
textLength="1580" font-size="660" lengthAdjust="spacingAndGlyphs"
text-anchor="middle" opacity="0">GND</text>
<path d="M39660 44000
L39620 43970
L39550 43970
L39470 44000
L39430 44040
L39400 44090
L39380 44190
L39380 44260
L39400 44350
L39430 44400
L39470 44450
L39550 44470
L39590 44470
L39660 44450
L39690 44420
L39690 44260
L39590 44260
" />
<path d="M39900 44470
L39900 43970
L40190 44470
L40190 43970
" />
<path d="M40430 44470
L40430 43970
L40550 43970
L40620 44000
L40660 44040
L40690 44090
L40710 44190
L40710 44260
L40690 44350
L40660 44400
L40620 44450
L40550 44470
L40430 44470
" />
</g>
</g>
<g style="fill:#008484; fill-opacity:0.0; 
stroke:#008484; stroke-width:0; stroke-opacity:1; 
stroke-linecap:round; stroke-linejoin:round;">
<g >
</g>
<g style="fill:#840000; fill-opacity:0.0; 
stroke:#840000; stroke-width:0; stroke-opacity:1; 
stroke-linecap:round; stroke-linejoin:round;">
</g>
<g style="fill:#840000; fill-opacity:0.0; 
stroke:#840000; stroke-width:200; stroke-opacity:1; 
stroke-linecap:round; stroke-linejoin:round;">
<path style="fill:#840000; fill-opacity:0.0; 
stroke:#840000; stroke-width:200; stroke-opacity:1; 
stroke-linecap:round; stroke-linejoin:round;fill:none"
d="M 58700,28800
60300,28800
" /> 
<path style="fill:#840000; fill-opacity:0.0; 
stroke:#840000; stroke-width:200; stroke-opacity:1; 
stroke-linecap:round; stroke-linejoin:round;fill:none"
d="M 58700,28200
60300,28200
" /> 
</g>
<g style="fill:#840000; fill-opacity:0.0; 
stroke:#840000; stroke-width:60; stroke-opacity:1; 
stroke-linecap:round; stroke-linejoin:round;">
<path d="M59500 28100
L59500 27000
" />
<path d="M59500 28900
L59500 30000
" />
</g>
<g style="fill:#008484; fill-opacity:0.0; 
stroke:#008484; stroke-width:60; stroke-opacity:1; 
stroke-linecap:round; stroke-linejoin:round;">
<text x="61170" y="28310"
textLength="1040" font-size="660" lengthAdjust="spacingAndGlyphs"
text-anchor="middle" opacity="0">C4</text>
<path d="M61080 28230
L61060 28260
L60990 28280
L60940 28280
L60870 28260
L60820 28210
L60800 28160
L60770 28070
L60770 28000
L60800 27900
L60820 27850
L60870 27810
L60940 27780
L60990 27780
L61060 27810
L61080 27830
" />
<path d="M61510 27950
L61510 28280
" />
<path d="M61390 27760
L61270 28110
L61580 28110
" />
<text x="61900" y="29220"
textLength="2510" font-size="660" lengthAdjust="spacingAndGlyphs"
text-anchor="middle" opacity="0">0.1 uF</text>
<path d="M60880 28690
L60930 28690
L60980 28720
L61000 28740
L61030 28790
L61050 28880
L61050 29000
L61030 29100
L61000 29140
L60980 29170
L60930 29190
L60880 29190
L60840 29170
L60810 29140
L60790 29100
L60760 29000
L60760 28880
L60790 28790
L60810 28740
L60840 28720
L60880 28690
" />
<path d="M61260 29140
L61290 29170
L61260 29190
L61240 29170
L61260 29140
L61260 29190
" />
<path d="M61760 29190
L61480 29190
" />
<path d="M61620 29190
L61620 28690
L61570 28760
L61530 28810
L61480 28830
" />
<path d="M62570 28860
L62570 29190
" />
<path d="M62360 28860
L62360 29120
L62380 29170
L62430 29190
L62500 29190
L62550 29170
L62570 29140
" />
<path d="M62980 28930
L62810 28930
" />
<path d="M62810 29190
L62810 28690
L63050 28690
" />
</g>
</g>
<g style="fill:#008484; fill-opacity:0.0; 
stroke:#008484; stroke-width:0; stroke-opacity:1; 
stroke-linecap:round; stroke-linejoin:round;">
<g >
</g>
<g style="fill:#840000; fill-opacity:0.0; 
stroke:#840000; stroke-width:0; stroke-opacity:1; 
stroke-linecap:round; stroke-linejoin:round;">
</g>
<g style="fill:#840000; fill-opacity:0.0; 
stroke:#840000; stroke-width:60; stroke-opacity:1; 
stroke-linecap:round; stroke-linejoin:round;">
<path style="fill:#840000; fill-opacity:0.0; 
stroke:#840000; stroke-width:60; stroke-opacity:1; 
stroke-linecap:round; stroke-linejoin:round;fill:none"
d="M 59500,31000
59500,31500
60000,31500
59500,32000
59000,31500
59500,31500
" /> 
</g>
<g style="fill:#008484; fill-opacity:0.0; 
stroke:#008484; stroke-width:60; stroke-opacity:1; 
stroke-linecap:round; stroke-linejoin:round;">
<text x="59550" y="33000"
textLength="1580" font-size="660" lengthAdjust="spacingAndGlyphs"
text-anchor="middle" opacity="0">GND</text>
<path d="M59160 32500
L59120 32470
L59050 32470
L58970 32500
L58930 32540
L58900 32590
L58880 32690
L58880 32760
L58900 32850
L58930 32900
L58970 32950
L59050 32970
L59090 32970
L59160 32950
L59190 32920
L59190 32760
L59090 32760
" />
<path d="M59400 32970
L59400 32470
L59690 32970
L59690 32470
" />
<path d="M59930 32970
L59930 32470
L60050 32470
L60120 32500
L60160 32540
L60190 32590
L60210 32690
L60210 32760
L60190 32850
L60160 32900
L60120 32950
L60050 32970
L59930 32970
" />
</g>
</g>
<g style="fill:#008484; fill-opacity:0.0; 
stroke:#008484; stroke-width:0; stroke-opacity:1; 
stroke-linecap:round; stroke-linejoin:round;">
<g >
</g>
<g style="fill:#840000; fill-opacity:0.0; 
stroke:#840000; stroke-width:0; stroke-opacity:1; 
stroke-linecap:round; stroke-linejoin:round;">
</g>
<g style="fill:#840000; fill-opacity:0.0; 
stroke:#840000; stroke-width:100; stroke-opacity:1; 
stroke-linecap:round; stroke-linejoin:round;">
<path style="fill:#840000; fill-opacity:0.0; 
stroke:#840000; stroke-width:100; stroke-opacity:1; 
stroke-linecap:round; stroke-linejoin:round;fill:none"
d="M 55000,30000
54000,30000
" /> 
</g>
<g style="fill:#840000; fill-opacity:0.0; 
stroke:#840000; stroke-width:60; stroke-opacity:1; 
stroke-linecap:round; stroke-linejoin:round;">
<path style="fill:#840000; fill-opacity:0.0; 
stroke:#840000; stroke-width:60; stroke-opacity:1; 
stroke-linecap:round; stroke-linejoin:round;fill:none"
d="M 54500,30000
54500,29000
" /> 
</g>
<g style="fill:#840000; fill-opacity:0.0; 
stroke:#840000; stroke-width:100; stroke-opacity:1; 
stroke-linecap:round; stroke-linejoin:round;">
<path style="fill:#840000; fill-opacity:0.0; 
stroke:#840000; stroke-width:100; stroke-opacity:1; 
stroke-linecap:round; stroke-linejoin:round;fill:none"
d="M 55000,29000
54000,29000
54500,30000
Z" /> 
</g>
<g style="fill:#840000; fill-opacity:0.0; 
stroke:#840000; stroke-width:60; stroke-opacity:1; 
stroke-linecap:round; stroke-linejoin:round;">
<path style="fill:#840000; fill-opacity:0.0; 
stroke:#840000; stroke-width:60; stroke-opacity:1; 
stroke-linecap:round; stroke-linejoin:round;fill:none"
d="M 54800,30700
55400,31300
55400,31000
55400,31300
55100,31300
" /> 
<path style="fill:#840000; fill-opacity:0.0; 
stroke:#840000; stroke-width:60; stroke-opacity:1; 
stroke-linecap:round; stroke-linejoin:round;fill:none"
d="M 54800,30200
55400,30800
55400,30500
55400,30800
55100,30800
" /> 
<path d="M54500 30000
L54500 31000
" />
<path d="M54500 29000
L54500 28000
" />
</g>
<g style="fill:#008484; fill-opacity:0.0; 
stroke:#008484; stroke-width:60; stroke-opacity:1; 
stroke-linecap:round; stroke-linejoin:round;">
<text x="53020" y="29220"
textLength="1040" font-size="660" lengthAdjust="spacingAndGlyphs"
text-anchor="middle" opacity="0">D1</text>
<path d="M52650 29190
L52650 28690
L52770 28690
L52840 28720
L52880 28760
L52910 28810
L52930 28910
L52930 28980
L52910 29070
L52880 29120
L52840 29170
L52770 29190
L52650 29190
" />
<path d="M53410 29190
L53120 29190
" />
<path d="M53270 29190
L53270 28690
L53220 28760
L53170 28810
L53120 28830
" />
<text x="53210" y="30220"
textLength="1420" font-size="660" lengthAdjust="spacingAndGlyphs"
text-anchor="middle" opacity="0">LED</text>
<path d="M52880 30190
L52650 30190
L52650 29690
" />
<path d="M53050 29930
L53220 29930
" />
<path d="M53290 30190
L53050 30190
L53050 29690
L53290 29690
" />
<path d="M53500 30190
L53500 29690
L53620 29690
L53690 29720
L53740 29760
L53760 29810
L53790 29910
L53790 29980
L53760 30070
L53740 30120
L53690 30170
L53620 30190
L53500 30190
" />
</g>
</g>
<g style="fill:#008484; fill-opacity:0.0; 
stroke:#008484; stroke-width:0; stroke-opacity:1; 
stroke-linecap:round; stroke-linejoin:round;">
<g >
</g>
<g style="fill:#840000; fill-opacity:0.0; 
stroke:#840000; stroke-width:0; stroke-opacity:1; 
stroke-linecap:round; stroke-linejoin:round;">
</g>
<g style="fill:#840000; fill-opacity:0.0; 
stroke:#840000; stroke-width:200; stroke-opacity:1; 
stroke-linecap:round; stroke-linejoin:round;">
<path style="fill:#840000; fill-opacity:0.0; 
stroke:#840000; stroke-width:200; stroke-opacity:1; 
stroke-linecap:round; stroke-linejoin:round;fill:none"
d="M 49200,30300
50800,30300
" /> 
<path style="fill:#840000; fill-opacity:0.0; 
stroke:#840000; stroke-width:200; stroke-opacity:1; 
stroke-linecap:round; stroke-linejoin:round;fill:none"
d="M 49200,29700
50800,29700
" /> 
</g>
<g style="fill:#840000; fill-opacity:0.0; 
stroke:#840000; stroke-width:60; stroke-opacity:1; 
stroke-linecap:round; stroke-linejoin:round;">
<path d="M50000 29600
L50000 28500
" />
<path d="M50000 30400
L50000 31500
" />
</g>
<g style="fill:#008484; fill-opacity:0.0; 
stroke:#008484; stroke-width:60; stroke-opacity:1; 
stroke-linecap:round; stroke-linejoin:round;">
<text x="48020" y="28270"
textLength="1040" font-size="660" lengthAdjust="spacingAndGlyphs"
text-anchor="middle" opacity="0">C5</text>
<path d="M47930 28190
L47910 28220
L47840 28240
L47790 28240
L47720 28220
L47670 28170
L47650 28120
L47620 28030
L47620 27960
L47650 27860
L47670 27810
L47720 27770
L47790 27740
L47840 27740
L47910 27770
L47930 27790
" />
<path d="M48380 27740
L48150 27740
L48120 27980
L48150 27960
L48190 27930
L48310 27930
L48360 27960
L48380 27980
L48410 28030
L48410 28150
L48380 28190
L48360 28220
L48310 28240
L48190 28240
L48150 28220
L48120 28190
" />
<text x="48750" y="29270"
textLength="2510" font-size="660" lengthAdjust="spacingAndGlyphs"
text-anchor="middle" opacity="0">0.1 uF</text>
<path d="M47730 28740
L47780 28740
L47830 28770
L47850 28790
L47880 28840
L47900 28930
L47900 29050
L47880 29150
L47850 29190
L47830 29220
L47780 29240
L47730 29240
L47690 29220
L47660 29190
L47640 29150
L47610 29050
L47610 28930
L47640 28840
L47660 28790
L47690 28770
L47730 28740
" />
<path d="M48110 29190
L48140 29220
L48110 29240
L48090 29220
L48110 29190
L48110 29240
" />
<path d="M48610 29240
L48330 29240
" />
<path d="M48470 29240
L48470 28740
L48420 28810
L48380 28860
L48330 28880
" />
<path d="M49420 28910
L49420 29240
" />
<path d="M49210 28910
L49210 29170
L49230 29220
L49280 29240
L49350 29240
L49400 29220
L49420 29190
" />
<path d="M49830 28980
L49660 28980
" />
<path d="M49660 29240
L49660 28740
L49900 28740
" />
</g>
</g>
<g style="fill:#008484; fill-opacity:0.0; 
stroke:#008484; stroke-width:0; stroke-opacity:1; 
stroke-linecap:round; stroke-linejoin:round;">
<g >
</g>
<g style="fill:#840000; fill-opacity:0.0; 
stroke:#840000; stroke-width:0; stroke-opacity:1; 
stroke-linecap:round; stroke-linejoin:round;">
</g>
<g style="fill:#840000; fill-opacity:0.0; 
stroke:#840000; stroke-width:100; stroke-opacity:1; 
stroke-linecap:round; stroke-linejoin:round;">
<rect x="30500" y="33600" width="2000" height="800" rx="0" />
</g>
<g style="fill:#840000; fill-opacity:0.0; 
stroke:#840000; stroke-width:60; stroke-opacity:1; 
stroke-linecap:round; stroke-linejoin:round;">
<path d="M32500 34000
L33000 34000
" />
<path d="M30500 34000
L30000 34000
" />
</g>
<g style="fill:#008484; fill-opacity:0.0; 
stroke:#008484; stroke-width:60; stroke-opacity:1; 
stroke-linecap:round; stroke-linejoin:round;">
<text x="31500" y="36270"
textLength="1040" font-size="660" lengthAdjust="spacingAndGlyphs"
text-anchor="middle" opacity="0">R3</text>
<path d="M31410 36240
L31250 36000
" />
<path d="M31130 36240
L31130 35740
L31320 35740
L31360 35770
L31390 35790
L31410 35840
L31410 35910
L31390 35960
L31360 35980
L31320 36000
L31130 36000
" />
<path d="M31580 35740
L31890 35740
L31720 35930
L31790 35930
L31840 35960
L31860 35980
L31890 36030
L31890 36150
L31860 36190
L31840 36220
L31790 36240
L31650 36240
L31600 36220
L31580 36190
" />
<text x="31500" y="35270"
textLength="1510" font-size="660" lengthAdjust="spacingAndGlyphs"
text-anchor="middle" opacity="0">22R</text>
<path d="M30860 34790
L30890 34770
L30940 34740
L31050 34740
L31100 34770
L31130 34790
L31150 34840
L31150 34880
L31130 34960
L30840 35240
L31150 35240
" />
<path d="M31340 34790
L31360 34770
L31410 34740
L31530 34740
L31580 34770
L31600 34790
L31630 34840
L31630 34880
L31600 34960
L31320 35240
L31630 35240
" />
<path d="M32130 35240
L31960 35000
" />
<path d="M31840 35240
L31840 34740
L32030 34740
L32080 34770
L32100 34790
L32130 34840
L32130 34910
L32100 34960
L32080 34980
L32030 35000
L31840 35000
" />
</g>
</g>
<g style="fill:#008484; fill-opacity:0.0; 
stroke:#008484; stroke-width:0; stroke-opacity:1; 
stroke-linecap:round; stroke-linejoin:round;">
<g >
</g>
<g style="fill:#840000; fill-opacity:0.0; 
stroke:#840000; stroke-width:0; stroke-opacity:1; 
stroke-linecap:round; stroke-linejoin:round;">
</g>
<g style="fill:#840000; fill-opacity:0.0; 
stroke:#840000; stroke-width:100; stroke-opacity:1; 
stroke-linecap:round; stroke-linejoin:round;">
<rect x="30500" y="32600" width="2000" height="800" rx="0" />
</g>
<g style="fill:#840000; fill-opacity:0.0; 
stroke:#840000; stroke-width:60; stroke-opacity:1; 
stroke-linecap:round; stroke-linejoin:round;">
<path d="M32500 33000
L33000 33000
" />
<path d="M30500 33000
L30000 33000
" />
</g>
<g style="fill:#008484; fill-opacity:0.0; 
stroke:#008484; stroke-width:60; stroke-opacity:1; 
stroke-linecap:round; stroke-linejoin:round;">
<text x="31500" y="31200"
textLength="1040" font-size="660" lengthAdjust="spacingAndGlyphs"
text-anchor="middle" opacity="0">R2</text>
<path d="M31410 31170
L31250 30930
" />
<path d="M31130 31170
L31130 30670
L31320 30670
L31360 30700
L31390 30720
L31410 30770
L31410 30840
L31390 30890
L31360 30910
L31320 30930
L31130 30930
" />
<path d="M31600 30720
L31630 30700
L31670 30670
L31790 30670
L31840 30700
L31860 30720
L31890 30770
L31890 30810
L31860 30890
L31580 31170
L31890 31170
" />
<text x="31500" y="32110"
textLength="1510" font-size="660" lengthAdjust="spacingAndGlyphs"
text-anchor="middle" opacity="0">22R</text>
<path d="M30860 31630
L30890 31610
L30940 31580
L31050 31580
L31100 31610
L31130 31630
L31150 31680
L31150 31720
L31130 31800
L30840 32080
L31150 32080
" />
<path d="M31340 31630
L31360 31610
L31410 31580
L31530 31580
L31580 31610
L31600 31630
L31630 31680
L31630 31720
L31600 31800
L31320 32080
L31630 32080
" />
<path d="M32130 32080
L31960 31840
" />
<path d="M31840 32080
L31840 31580
L32030 31580
L32080 31610
L32100 31630
L32130 31680
L32130 31750
L32100 31800
L32080 31820
L32030 31840
L31840 31840
" />
</g>
</g>
<g style="fill:#008484; fill-opacity:0.0; 
stroke:#008484; stroke-width:0; stroke-opacity:1; 
stroke-linecap:round; stroke-linejoin:round;">
<g >
</g>
<g style="fill:#840000; fill-opacity:0.0; 
stroke:#840000; stroke-width:0; stroke-opacity:1; 
stroke-linecap:round; stroke-linejoin:round;">
</g>
<g style="fill:#FFFFC2; fill-opacity:0.0; 
stroke:#FFFFC2; stroke-width:0; stroke-opacity:1; 
stroke-linecap:round; stroke-linejoin:round;">
</g>
<g style="fill:#FFFFC2; fill-opacity:0.6; 
stroke:#FFFFC2; stroke-width:0; stroke-opacity:1; 
stroke-linecap:round; stroke-linejoin:round;">
<rect x="22000" y="30000" width="4000" height="6000" rx="0" />
</g>
<g style="fill:#840000; fill-opacity:0.6; 
stroke:#840000; stroke-width:0; stroke-opacity:1; 
stroke-linecap:round; stroke-linejoin:round;">
</g>
<g style="fill:#840000; fill-opacity:0.0; 
stroke:#840000; stroke-width:100; stroke-opacity:1; 
stroke-linecap:round; stroke-linejoin:round;">
<rect x="22000" y="30000" width="4000" height="6000" rx="0" />
</g>
<g style="fill:#840000; fill-opacity:1.0; 
stroke:#840000; stroke-width:100; stroke-opacity:1; 
stroke-linecap:round; stroke-linejoin:round;">
<circle cx="22500" cy="32150" r="250" /> 
<circle cx="23750" cy="31650" r="150" /> 
</g>
<g style="fill:#840000; fill-opacity:0.0; 
stroke:#840000; stroke-width:100; stroke-opacity:1; 
stroke-linecap:round; stroke-linejoin:round;">
<rect x="22000" y="30000" width="4000" height="6000" rx="0" />
</g>
<g style="fill:#840000; fill-opacity:1.0; 
stroke:#840000; stroke-width:60; stroke-opacity:1; 
stroke-linecap:round; stroke-linejoin:round;">
<rect x="22500" y="30800" width="500" height="400" rx="0" />
</g>
<g style="fill:#840000; fill-opacity:0.0; 
stroke:#840000; stroke-width:60; stroke-opacity:1; 
stroke-linecap:round; stroke-linejoin:round;">
<rect x="23950" y="35700" width="100" height="300" rx="0" />
</g>
<g style="fill:#840000; fill-opacity:1.0; 
stroke:#840000; stroke-width:100; stroke-opacity:1; 
stroke-linecap:round; stroke-linejoin:round;">
<rect x="23800" y="32500" width="300" height="300" rx="0" />
</g>
<g style="fill:#840000; fill-opacity:0.0; 
stroke:#840000; stroke-width:60; stroke-opacity:1; 
stroke-linecap:round; stroke-linejoin:round;">
<rect x="25700" y="33950" width="300" height="100" rx="0" />
<rect x="25700" y="32950" width="300" height="100" rx="0" />
<rect x="25700" y="30950" width="300" height="100" rx="0" />
</g>
<g style="fill:#840000; fill-opacity:0.0; 
stroke:#840000; stroke-width:100; stroke-opacity:1; 
stroke-linecap:round; stroke-linejoin:round;">
<path style="fill:#840000; fill-opacity:0.0; 
stroke:#840000; stroke-width:100; stroke-opacity:1; 
stroke-linecap:round; stroke-linejoin:round;fill:none"
d="M 23250,32150
24250,32150
" /> 
<path style="fill:#840000; fill-opacity:0.0; 
stroke:#840000; stroke-width:100; stroke-opacity:1; 
stroke-linecap:round; stroke-linejoin:round;fill:none"
d="M 22750,32150
23000,32150
23500,31650
23750,31650
" /> 
<path style="fill:#840000; fill-opacity:0.0; 
stroke:#840000; stroke-width:100; stroke-opacity:1; 
stroke-linecap:round; stroke-linejoin:round;fill:none"
d="M 23000,32150
23250,32150
23500,32650
24000,32650
" /> 
</g>
<g style="fill:#840000; fill-opacity:1.0; 
stroke:#840000; stroke-width:100; stroke-opacity:1; 
stroke-linecap:round; stroke-linejoin:round;">
<path style="fill:#840000; fill-opacity:1.0; 
stroke:#840000; stroke-width:100; stroke-opacity:1; 
stroke-linecap:round; stroke-linejoin:round;fill-rule:evenodd;"
d="M 24250,31900
24250,32400
24750,32150
Z" /> 
</g>
<g style="fill:#840000; fill-opacity:0.0; 
stroke:#840000; stroke-width:60; stroke-opacity:1; 
stroke-linecap:round; stroke-linejoin:round;">
<path style="fill:#840000; fill-opacity:0.0; 
stroke:#840000; stroke-width:60; stroke-opacity:1; 
stroke-linecap:round; stroke-linejoin:round;fill:none"
d="M 22400,31300
23100,31300
23100,30750
22950,30600
22550,30600
22400,30750
Z" /> 
<path d="M26000 31000
L27000 31000
" />
</g>
<g style="fill:#008484; fill-opacity:0.0; 
stroke:#008484; stroke-width:60; stroke-opacity:1; 
stroke-linecap:round; stroke-linejoin:round;">
<text x="25600" y="31250"
textLength="1990" font-size="660" lengthAdjust="spacingAndGlyphs"
text-anchor="end" opacity="0">VBUS</text>
<path d="M23680 30720
L23850 31220
L24020 30720
" />
<path d="M24350 30960
L24420 30980
L24450 31010
L24470 31050
L24470 31130
L24450 31170
L24420 31200
L24370 31220
L24180 31220
L24180 30720
L24350 30720
L24400 30750
L24420 30770
L24450 30820
L24450 30860
L24420 30910
L24400 30940
L24350 30960
L24180 30960
" />
<path d="M24680 30720
L24680 31130
L24710 31170
L24730 31200
L24780 31220
L24870 31220
L24920 31200
L24950 31170
L24970 31130
L24970 30720
" />
<path d="M25180 31200
L25260 31220
L25370 31220
L25420 31200
L25450 31170
L25470 31130
L25470 31080
L25450 31030
L25420 31010
L25370 30980
L25280 30960
L25230 30940
L25210 30910
L25180 30860
L25180 30820
L25210 30770
L25230 30750
L25280 30720
L25400 30720
L25470 30750
" />
</g>
<g style="fill:#840000; fill-opacity:0.0; 
stroke:#840000; stroke-width:60; stroke-opacity:1; 
stroke-linecap:round; stroke-linejoin:round;">
<text x="26500" y="30900"
textLength="540" font-size="660" lengthAdjust="spacingAndGlyphs"
text-anchor="middle" opacity="0">1</text>
<path d="M26640 30870
L26350 30870
" />
<path d="M26500 30870
L26500 30370
L26450 30440
L26400 30490
L26350 30510
" />
<path d="M26000 34000
L27000 34000
" />
</g>
<g style="fill:#008484; fill-opacity:0.0; 
stroke:#008484; stroke-width:60; stroke-opacity:1; 
stroke-linecap:round; stroke-linejoin:round;">
<text x="25600" y="34250"
textLength="1180" font-size="660" lengthAdjust="spacingAndGlyphs"
text-anchor="end" opacity="0">D-</text>
<path d="M24570 34220
L24570 33720
L24680 33720
L24760 33750
L24800 33790
L24830 33840
L24850 33940
L24850 34010
L24830 34100
L24800 34150
L24760 34200
L24680 34220
L24570 34220
" />
<path d="M25070 34030
L25450 34030
" />
</g>
<g style="fill:#840000; fill-opacity:0.0; 
stroke:#840000; stroke-width:60; stroke-opacity:1; 
stroke-linecap:round; stroke-linejoin:round;">
<text x="26500" y="33900"
textLength="540" font-size="660" lengthAdjust="spacingAndGlyphs"
text-anchor="middle" opacity="0">2</text>
<path d="M26350 33420
L26380 33400
L26420 33370
L26540 33370
L26590 33400
L26610 33420
L26640 33470
L26640 33510
L26610 33590
L26330 33870
L26640 33870
" />
<path d="M26000 33000
L27000 33000
" />
</g>
<g style="fill:#008484; fill-opacity:0.0; 
stroke:#008484; stroke-width:60; stroke-opacity:1; 
stroke-linecap:round; stroke-linejoin:round;">
<text x="25600" y="33250"
textLength="1180" font-size="660" lengthAdjust="spacingAndGlyphs"
text-anchor="end" opacity="0">D+</text>
<path d="M24570 33220
L24570 32720
L24680 32720
L24760 32750
L24800 32790
L24830 32840
L24850 32940
L24850 33010
L24830 33100
L24800 33150
L24760 33200
L24680 33220
L24570 33220
" />
<path d="M25070 33030
L25450 33030
" />
<path d="M25260 33220
L25260 32840
" />
</g>
<g style="fill:#840000; fill-opacity:0.0; 
stroke:#840000; stroke-width:60; stroke-opacity:1; 
stroke-linecap:round; stroke-linejoin:round;">
<text x="26500" y="32900"
textLength="540" font-size="660" lengthAdjust="spacingAndGlyphs"
text-anchor="middle" opacity="0">3</text>
<path d="M26330 32370
L26640 32370
L26470 32560
L26540 32560
L26590 32590
L26610 32610
L26640 32660
L26640 32780
L26610 32820
L26590 32850
L26540 32870
L26400 32870
L26350 32850
L26330 32820
" />
<path d="M24000 36000
L24000 37000
" />
</g>
<g style="fill:#008484; fill-opacity:0.0; 
stroke:#008484; stroke-width:60; stroke-opacity:1; 
stroke-linecap:round; stroke-linejoin:round;">
<g transform="rotate(-90 24000 35600)">
<text x="24000" y="35850"
textLength="1580" font-size="660" lengthAdjust="spacingAndGlyphs"
text-anchor="start" opacity="0">GND</text>
</g>
<path d="M23750 35180
L23720 35230
L23720 35300
L23750 35370
L23790 35420
L23840 35450
L23940 35470
L24010 35470
L24100 35450
L24150 35420
L24200 35370
L24220 35300
L24220 35260
L24200 35180
L24170 35160
L24010 35160
L24010 35260
" />
<path d="M24220 34950
L23720 34950
L24220 34660
L23720 34660
" />
<path d="M24220 34420
L23720 34420
L23720 34300
L23750 34230
L23790 34180
L23840 34160
L23940 34140
L24010 34140
L24100 34160
L24150 34180
L24200 34230
L24220 34300
L24220 34420
" />
</g>
<g style="fill:#840000; fill-opacity:0.0; 
stroke:#840000; stroke-width:60; stroke-opacity:1; 
stroke-linecap:round; stroke-linejoin:round;">
<g transform="rotate(-90 23900 36500)">
<text x="23900" y="36500"
textLength="540" font-size="660" lengthAdjust="spacingAndGlyphs"
text-anchor="middle" opacity="0">4</text>
</g>
<path d="M23540 36400
L23870 36400
" />
<path d="M23350 36520
L23700 36640
L23700 36330
" />
<path d="M23000 36000
L23000 37000
" />
</g>
<g style="fill:#008484; fill-opacity:0.0; 
stroke:#008484; stroke-width:60; stroke-opacity:1; 
stroke-linecap:round; stroke-linejoin:round;">
<g transform="rotate(-90 23000 35600)">
<text x="23000" y="35850"
textLength="2370" font-size="660" lengthAdjust="spacingAndGlyphs"
text-anchor="start" opacity="0">Shield</text>
</g>
<path d="M23200 35470
L23220 35400
L23220 35280
L23200 35230
L23170 35210
L23130 35180
L23080 35180
L23030 35210
L23010 35230
L22980 35280
L22960 35370
L22940 35420
L22910 35450
L22860 35470
L22820 35470
L22770 35450
L22750 35420
L22720 35370
L22720 35260
L22750 35180
" />
<path d="M23220 34970
L22720 34970
" />
<path d="M23220 34760
L22960 34760
L22910 34780
L22890 34830
L22890 34900
L22910 34950
L22940 34970
" />
<path d="M23220 34520
L22890 34520
" />
<path d="M22720 34520
L22750 34540
L22770 34520
L22750 34490
L22720 34520
L22770 34520
" />
<path d="M23200 34090
L23220 34140
L23220 34230
L23200 34280
L23150 34300
L22960 34300
L22910 34280
L22890 34230
L22890 34140
L22910 34090
L22960 34070
L23010 34070
L23050 34300
" />
<path d="M23220 33780
L23200 33830
L23150 33850
L22720 33850
" />
<path d="M23220 33370
L22720 33370
" />
<path d="M23200 33370
L23220 33420
L23220 33520
L23200 33570
L23170 33590
L23130 33610
L22980 33610
L22940 33590
L22910 33570
L22890 33520
L22890 33420
L22910 33370
" />
</g>
<g style="fill:#840000; fill-opacity:0.0; 
stroke:#840000; stroke-width:60; stroke-opacity:1; 
stroke-linecap:round; stroke-linejoin:round;">
<g transform="rotate(-90 22900 36500)">
<text x="22900" y="36500"
textLength="540" font-size="660" lengthAdjust="spacingAndGlyphs"
text-anchor="middle" opacity="0">5</text>
</g>
<path d="M22370 36380
L22370 36610
L22610 36640
L22590 36610
L22560 36570
L22560 36450
L22590 36400
L22610 36380
L22660 36350
L22780 36350
L22820 36380
L22850 36400
L22870 36450
L22870 36570
L22850 36610
L22820 36640
" />
</g>
<g style="fill:#008484; fill-opacity:0.0; 
stroke:#008484; stroke-width:60; stroke-opacity:1; 
stroke-linecap:round; stroke-linejoin:round;">
<text x="24570" y="28600"
textLength="920" font-size="660" lengthAdjust="spacingAndGlyphs"
text-anchor="middle" opacity="0">J2</text>
<path d="M24400 28070
L24400 28430
L24370 28500
L24330 28550
L24260 28570
L24210 28570
" />
<path d="M24610 28120
L24640 28100
L24680 28070
L24800 28070
L24850 28100
L24870 28120
L24900 28170
L24900 28210
L24870 28290
L24590 28570
L24900 28570
" />
<text x="24570" y="29510"
textLength="2440" font-size="660" lengthAdjust="spacingAndGlyphs"
text-anchor="middle" opacity="0">USB_B</text>
<path d="M23490 28980
L23490 29390
L23520 29430
L23540 29460
L23590 29480
L23680 29480
L23730 29460
L23760 29430
L23780 29390
L23780 28980
" />
<path d="M23990 29460
L24070 29480
L24180 29480
L24230 29460
L24260 29430
L24280 29390
L24280 29340
L24260 29290
L24230 29270
L24180 29240
L24090 29220
L24040 29200
L24020 29170
L23990 29120
L23990 29080
L24020 29030
L24040 29010
L24090 28980
L24210 28980
L24280 29010
" />
<path d="M24660 29220
L24730 29240
L24760 29270
L24780 29310
L24780 29390
L24760 29430
L24730 29460
L24680 29480
L24490 29480
L24490 28980
L24660 28980
L24710 29010
L24730 29030
L24760 29080
L24760 29120
L24730 29170
L24710 29200
L24660 29220
L24490 29220
" />
<path d="M24870 29530
L25260 29530
" />
<path d="M25540 29220
L25610 29240
L25640 29270
L25660 29310
L25660 29390
L25640 29430
L25610 29460
L25570 29480
L25370 29480
L25370 28980
L25540 28980
L25590 29010
L25610 29030
L25640 29080
L25640 29120
L25610 29170
L25590 29200
L25540 29220
L25370 29220
" />
</g>
</g>
<g style="fill:#008484; fill-opacity:0.0; 
stroke:#008484; stroke-width:0; stroke-opacity:1; 
stroke-linecap:round; stroke-linejoin:round;">
<g >
</g>
<g style="fill:#840000; fill-opacity:0.0; 
stroke:#840000; stroke-width:0; stroke-opacity:1; 
stroke-linecap:round; stroke-linejoin:round;">
</g>
<g style="fill:#FFFFC2; fill-opacity:0.0; 
stroke:#FFFFC2; stroke-width:0; stroke-opacity:1; 
stroke-linecap:round; stroke-linejoin:round;">
</g>
<g style="fill:#FFFFC2; fill-opacity:0.6; 
stroke:#FFFFC2; stroke-width:0; stroke-opacity:1; 
stroke-linecap:round; stroke-linejoin:round;">
<rect x="37000" y="28000" width="6000" height="11000" rx="0" />
</g>
<g style="fill:#840000; fill-opacity:0.6; 
stroke:#840000; stroke-width:0; stroke-opacity:1; 
stroke-linecap:round; stroke-linejoin:round;">
</g>
<g style="fill:#840000; fill-opacity:0.0; 
stroke:#840000; stroke-width:100; stroke-opacity:1; 
stroke-linecap:round; stroke-linejoin:round;">
<rect x="37000" y="28000" width="6000" height="11000" rx="0" />
<rect x="37000" y="28000" width="6000" height="11000" rx="0" />
</g>
<g style="fill:#840000; fill-opacity:0.0; 
stroke:#840000; stroke-width:60; stroke-opacity:1; 
stroke-linecap:round; stroke-linejoin:round;">
<path d="M40000 28000
L40000 27000
" />
</g>
<g style="fill:#008484; fill-opacity:0.0; 
stroke:#008484; stroke-width:60; stroke-opacity:1; 
stroke-linecap:round; stroke-linejoin:round;">
<g transform="rotate(-90 40000 28200)">
<text x="40000" y="28450"
textLength="1490" font-size="660" lengthAdjust="spacingAndGlyphs"
text-anchor="end" opacity="0">VDD</text>
</g>
<path d="M39720 29610
L40220 29440
L39720 29270
" />
<path d="M40220 29110
L39720 29110
L39720 28990
L39750 28920
L39790 28870
L39840 28840
L39940 28820
L40010 28820
L40100 28840
L40150 28870
L40200 28920
L40220 28990
L40220 29110
" />
<path d="M40220 28610
L39720 28610
L39720 28490
L39750 28420
L39790 28370
L39840 28340
L39940 28320
L40010 28320
L40100 28340
L40150 28370
L40200 28420
L40220 28490
L40220 28610
" />
</g>
<g style="fill:#840000; fill-opacity:0.0; 
stroke:#840000; stroke-width:60; stroke-opacity:1; 
stroke-linecap:round; stroke-linejoin:round;">
<g transform="rotate(-90 39900 27500)">
<text x="39900" y="27500"
textLength="540" font-size="660" lengthAdjust="spacingAndGlyphs"
text-anchor="middle" opacity="0">1</text>
</g>
<path d="M39870 27350
L39870 27640
" />
<path d="M39870 27500
L39370 27500
L39440 27540
L39490 27590
L39510 27640
" />
<path d="M43000 30000
L44000 30000
" />
</g>
<g style="fill:#008484; fill-opacity:0.0; 
stroke:#008484; stroke-width:60; stroke-opacity:1; 
stroke-linecap:round; stroke-linejoin:round;">
<text x="42800" y="30250"
textLength="1440" font-size="660" lengthAdjust="spacingAndGlyphs"
text-anchor="end" opacity="0">SCL</text>
<path d="M41480 30200
L41550 30220
L41670 30220
L41720 30200
L41740 30170
L41770 30130
L41770 30080
L41740 30030
L41720 30010
L41670 29980
L41570 29960
L41530 29940
L41500 29910
L41480 29860
L41480 29820
L41500 29770
L41530 29750
L41570 29720
L41690 29720
L41770 29750
" />
<path d="M42270 30170
L42240 30200
L42170 30220
L42120 30220
L42050 30200
L42000 30150
L41980 30100
L41960 30010
L41960 29940
L41980 29840
L42000 29790
L42050 29750
L42120 29720
L42170 29720
L42240 29750
L42270 29770
" />
<path d="M42720 30220
L42480 30220
L42480 29720
" />
</g>
<g style="fill:#840000; fill-opacity:0.0; 
stroke:#840000; stroke-width:60; stroke-opacity:1; 
stroke-linecap:round; stroke-linejoin:round;">
<text x="43500" y="29900"
textLength="1010" font-size="660" lengthAdjust="spacingAndGlyphs"
text-anchor="middle" opacity="0">10</text>
<path d="M43400 29870
L43110 29870
" />
<path d="M43260 29870
L43260 29370
L43210 29440
L43160 29490
L43110 29510
" />
<path d="M43710 29370
L43760 29370
L43800 29400
L43830 29420
L43850 29470
L43880 29560
L43880 29680
L43850 29780
L43830 29820
L43800 29850
L43760 29870
L43710 29870
L43660 29850
L43640 29820
L43610 29780
L43590 29680
L43590 29560
L43610 29470
L43640 29420
L43660 29400
L43710 29370
" />
<path d="M41000 28000
L41000 27000
" />
</g>
<g style="fill:#008484; fill-opacity:0.0; 
stroke:#008484; stroke-width:60; stroke-opacity:1; 
stroke-linecap:round; stroke-linejoin:round;">
<g transform="rotate(-90 41000 28200)">
<text x="41000" y="28450"
textLength="1990" font-size="660" lengthAdjust="spacingAndGlyphs"
text-anchor="end" opacity="0">VUSB</text>
</g>
<path d="M40720 30110
L41220 29940
L40720 29770
" />
<path d="M40720 29610
L41130 29610
L41170 29580
L41200 29560
L41220 29510
L41220 29420
L41200 29370
L41170 29340
L41130 29320
L40720 29320
" />
<path d="M41200 29110
L41220 29030
L41220 28920
L41200 28870
L41170 28840
L41130 28820
L41080 28820
L41030 28840
L41010 28870
L40980 28920
L40960 29010
L40940 29060
L40910 29080
L40860 29110
L40820 29110
L40770 29080
L40750 29060
L40720 29010
L40720 28890
L40750 28820
" />
<path d="M40960 28440
L40980 28370
L41010 28340
L41050 28320
L41130 28320
L41170 28340
L41200 28370
L41220 28420
L41220 28610
L40720 28610
L40720 28440
L40750 28390
L40770 28370
L40820 28340
L40860 28340
L40910 28370
L40940 28390
L40960 28440
L40960 28610
" />
</g>
<g style="fill:#840000; fill-opacity:0.0; 
stroke:#840000; stroke-width:60; stroke-opacity:1; 
stroke-linecap:round; stroke-linejoin:round;">
<g transform="rotate(-90 40900 27500)">
<text x="40900" y="27500"
textLength="1010" font-size="660" lengthAdjust="spacingAndGlyphs"
text-anchor="middle" opacity="0">11</text>
</g>
<path d="M40870 27590
L40870 27880
" />
<path d="M40870 27730
L40370 27730
L40440 27780
L40490 27830
L40510 27880
" />
<path d="M40870 27110
L40870 27400
" />
<path d="M40870 27260
L40370 27260
L40440 27300
L40490 27350
L40510 27400
" />
<path d="M37000 34000
L36000 34000
" />
</g>
<g style="fill:#008484; fill-opacity:0.0; 
stroke:#008484; stroke-width:60; stroke-opacity:1; 
stroke-linecap:round; stroke-linejoin:round;">
<text x="37200" y="34250"
textLength="1180" font-size="660" lengthAdjust="spacingAndGlyphs"
text-anchor="start" opacity="0">D-</text>
<path d="M37340 34220
L37340 33720
L37460 33720
L37530 33750
L37580 33790
L37610 33840
L37630 33940
L37630 34010
L37610 34100
L37580 34150
L37530 34200
L37460 34220
L37340 34220
" />
<path d="M37840 34030
L38230 34030
" />
</g>
<g style="fill:#840000; fill-opacity:0.0; 
stroke:#840000; stroke-width:60; stroke-opacity:1; 
stroke-linecap:round; stroke-linejoin:round;">
<text x="36500" y="33900"
textLength="1010" font-size="660" lengthAdjust="spacingAndGlyphs"
text-anchor="middle" opacity="0">12</text>
<path d="M36400 33870
L36110 33870
" />
<path d="M36260 33870
L36260 33370
L36210 33440
L36160 33490
L36110 33510
" />
<path d="M36590 33420
L36610 33400
L36660 33370
L36780 33370
L36830 33400
L36850 33420
L36880 33470
L36880 33510
L36850 33590
L36570 33870
L36880 33870
" />
<path d="M37000 33000
L36000 33000
" />
</g>
<g style="fill:#008484; fill-opacity:0.0; 
stroke:#008484; stroke-width:60; stroke-opacity:1; 
stroke-linecap:round; stroke-linejoin:round;">
<text x="37200" y="33250"
textLength="1180" font-size="660" lengthAdjust="spacingAndGlyphs"
text-anchor="start" opacity="0">D+</text>
<path d="M37340 33220
L37340 32720
L37460 32720
L37530 32750
L37580 32790
L37610 32840
L37630 32940
L37630 33010
L37610 33100
L37580 33150
L37530 33200
L37460 33220
L37340 33220
" />
<path d="M37840 33030
L38230 33030
" />
<path d="M38030 33220
L38030 32840
" />
</g>
<g style="fill:#840000; fill-opacity:0.0; 
stroke:#840000; stroke-width:60; stroke-opacity:1; 
stroke-linecap:round; stroke-linejoin:round;">
<text x="36500" y="32900"
textLength="1010" font-size="660" lengthAdjust="spacingAndGlyphs"
text-anchor="middle" opacity="0">13</text>
<path d="M36400 32870
L36110 32870
" />
<path d="M36260 32870
L36260 32370
L36210 32440
L36160 32490
L36110 32510
" />
<path d="M36570 32370
L36880 32370
L36710 32560
L36780 32560
L36830 32590
L36850 32610
L36880 32660
L36880 32780
L36850 32820
L36830 32850
L36780 32870
L36640 32870
L36590 32850
L36570 32820
" />
<path d="M40000 39000
L40000 40000
" />
</g>
<g style="fill:#008484; fill-opacity:0.0; 
stroke:#008484; stroke-width:60; stroke-opacity:1; 
stroke-linecap:round; stroke-linejoin:round;">
<g transform="rotate(-90 40000 38800)">
<text x="40000" y="39050"
textLength="1440" font-size="660" lengthAdjust="spacingAndGlyphs"
text-anchor="start" opacity="0">VSS</text>
</g>
<path d="M39720 38720
L40220 38550
L39720 38380
" />
<path d="M40200 38240
L40220 38170
L40220 38050
L40200 38000
L40170 37980
L40130 37960
L40080 37960
L40030 37980
L40010 38000
L39980 38050
L39960 38150
L39940 38190
L39910 38220
L39860 38240
L39820 38240
L39770 38220
L39750 38190
L39720 38150
L39720 38030
L39750 37960
" />
<path d="M40200 37770
L40220 37690
L40220 37570
L40200 37530
L40170 37500
L40130 37480
L40080 37480
L40030 37500
L40010 37530
L39980 37570
L39960 37670
L39940 37720
L39910 37740
L39860 37770
L39820 37770
L39770 37740
L39750 37720
L39720 37670
L39720 37550
L39750 37480
" />
</g>
<g style="fill:#840000; fill-opacity:0.0; 
stroke:#840000; stroke-width:60; stroke-opacity:1; 
stroke-linecap:round; stroke-linejoin:round;">
<g transform="rotate(-90 39900 39500)">
<text x="39900" y="39500"
textLength="1010" font-size="660" lengthAdjust="spacingAndGlyphs"
text-anchor="middle" opacity="0">14</text>
</g>
<path d="M39870 39590
L39870 39880
" />
<path d="M39870 39730
L39370 39730
L39440 39780
L39490 39830
L39510 39880
" />
<path d="M39540 39160
L39870 39160
" />
<path d="M39350 39280
L39700 39400
L39700 39090
" />
<path d="M43000 35000
L44000 35000
" />
</g>
<g style="fill:#008484; fill-opacity:0.0; 
stroke:#008484; stroke-width:60; stroke-opacity:1; 
stroke-linecap:round; stroke-linejoin:round;">
<text x="42800" y="35250"
textLength="1540" font-size="660" lengthAdjust="spacingAndGlyphs"
text-anchor="end" opacity="0">GP0</text>
<path d="M41670 34750
L41620 34720
L41550 34720
L41480 34750
L41430 34790
L41410 34840
L41380 34940
L41380 35010
L41410 35100
L41430 35150
L41480 35200
L41550 35220
L41600 35220
L41670 35200
L41690 35170
L41690 35010
L41600 35010
" />
<path d="M41910 35220
L41910 34720
L42100 34720
L42150 34750
L42170 34770
L42190 34820
L42190 34890
L42170 34940
L42150 34960
L42100 34980
L41910 34980
" />
<path d="M42500 34720
L42550 34720
L42600 34750
L42620 34770
L42650 34820
L42670 34910
L42670 35030
L42650 35130
L42620 35170
L42600 35200
L42550 35220
L42500 35220
L42460 35200
L42430 35170
L42410 35130
L42380 35030
L42380 34910
L42410 34820
L42430 34770
L42460 34750
L42500 34720
" />
</g>
<g style="fill:#840000; fill-opacity:0.0; 
stroke:#840000; stroke-width:60; stroke-opacity:1; 
stroke-linecap:round; stroke-linejoin:round;">
<text x="43500" y="34900"
textLength="540" font-size="660" lengthAdjust="spacingAndGlyphs"
text-anchor="middle" opacity="0">2</text>
<path d="M43350 34420
L43380 34400
L43420 34370
L43540 34370
L43590 34400
L43610 34420
L43640 34470
L43640 34510
L43610 34590
L43330 34870
L43640 34870
" />
<path d="M43000 36000
L44000 36000
" />
</g>
<g style="fill:#008484; fill-opacity:0.0; 
stroke:#008484; stroke-width:60; stroke-opacity:1; 
stroke-linecap:round; stroke-linejoin:round;">
<text x="42800" y="36250"
textLength="1540" font-size="660" lengthAdjust="spacingAndGlyphs"
text-anchor="end" opacity="0">GP1</text>
<path d="M41670 35750
L41620 35720
L41550 35720
L41480 35750
L41430 35790
L41410 35840
L41380 35940
L41380 36010
L41410 36100
L41430 36150
L41480 36200
L41550 36220
L41600 36220
L41670 36200
L41690 36170
L41690 36010
L41600 36010
" />
<path d="M41910 36220
L41910 35720
L42100 35720
L42150 35750
L42170 35770
L42190 35820
L42190 35890
L42170 35940
L42150 35960
L42100 35980
L41910 35980
" />
<path d="M42670 36220
L42380 36220
" />
<path d="M42530 36220
L42530 35720
L42480 35790
L42430 35840
L42380 35860
" />
</g>
<g style="fill:#840000; fill-opacity:0.0; 
stroke:#840000; stroke-width:60; stroke-opacity:1; 
stroke-linecap:round; stroke-linejoin:round;">
<text x="43500" y="35900"
textLength="540" font-size="660" lengthAdjust="spacingAndGlyphs"
text-anchor="middle" opacity="0">3</text>
<path d="M43330 35370
L43640 35370
L43470 35560
L43540 35560
L43590 35590
L43610 35610
L43640 35660
L43640 35780
L43610 35820
L43590 35850
L43540 35870
L43400 35870
L43350 35850
L43330 35820
" />
<path d="M37000 29000
L36000 29000
" />
</g>
<g style="fill:#008484; fill-opacity:0.0; 
stroke:#008484; stroke-width:60; stroke-opacity:1; 
stroke-linecap:round; stroke-linejoin:round;">
<text x="37200" y="29250"
textLength="1420" font-size="660" lengthAdjust="spacingAndGlyphs"
text-anchor="start" opacity="0">~RST</text>
<path d="M37230 28580
L37730 28580
" />
<path d="M37630 29220
L37460 28980
" />
<path d="M37340 29220
L37340 28720
L37530 28720
L37580 28750
L37610 28770
L37630 28820
L37630 28890
L37610 28940
L37580 28960
L37530 28980
L37340 28980
" />
<path d="M37730 28580
L38200 28580
" />
<path d="M37820 29200
L37890 29220
L38010 29220
L38060 29200
L38080 29170
L38110 29130
L38110 29080
L38080 29030
L38060 29010
L38010 28980
L37920 28960
L37870 28940
L37840 28910
L37820 28860
L37820 28820
L37840 28770
L37870 28750
L37920 28720
L38030 28720
L38110 28750
" />
<path d="M38200 28580
L38580 28580
" />
<path d="M38250 28720
L38530 28720
" />
<path d="M38390 29220
L38390 28720
" />
</g>
<g style="fill:#840000; fill-opacity:0.0; 
stroke:#840000; stroke-width:60; stroke-opacity:1; 
stroke-linecap:round; stroke-linejoin:round;">
<text x="36500" y="28900"
textLength="540" font-size="660" lengthAdjust="spacingAndGlyphs"
text-anchor="middle" opacity="0">4</text>
<path d="M36590 28540
L36590 28870
" />
<path d="M36470 28350
L36350 28700
L36660 28700
" />
<path d="M43000 32000
L44000 32000
" />
</g>
<g style="fill:#008484; fill-opacity:0.0; 
stroke:#008484; stroke-width:60; stroke-opacity:1; 
stroke-linecap:round; stroke-linejoin:round;">
<text x="42800" y="32250"
textLength="1490" font-size="660" lengthAdjust="spacingAndGlyphs"
text-anchor="end" opacity="0">URx</text>
<path d="M41460 31720
L41460 32130
L41480 32170
L41500 32200
L41550 32220
L41650 32220
L41690 32200
L41720 32170
L41740 32130
L41740 31720
" />
<path d="M42270 32220
L42100 31980
" />
<path d="M41980 32220
L41980 31720
L42170 31720
L42220 31750
L42240 31770
L42270 31820
L42270 31890
L42240 31940
L42220 31960
L42170 31980
L41980 31980
" />
<path d="M42430 32220
L42690 31890
" />
<path d="M42430 31890
L42690 32220
" />
</g>
<g style="fill:#840000; fill-opacity:0.0; 
stroke:#840000; stroke-width:60; stroke-opacity:1; 
stroke-linecap:round; stroke-linejoin:round;">
<text x="43500" y="31900"
textLength="540" font-size="660" lengthAdjust="spacingAndGlyphs"
text-anchor="middle" opacity="0">5</text>
<path d="M43610 31370
L43380 31370
L43350 31610
L43380 31590
L43420 31560
L43540 31560
L43590 31590
L43610 31610
L43640 31660
L43640 31780
L43610 31820
L43590 31850
L43540 31870
L43420 31870
L43380 31850
L43350 31820
" />
<path d="M43000 33000
L44000 33000
" />
</g>
<g style="fill:#008484; fill-opacity:0.0; 
stroke:#008484; stroke-width:60; stroke-opacity:1; 
stroke-linecap:round; stroke-linejoin:round;">
<text x="42800" y="33250"
textLength="1370" font-size="660" lengthAdjust="spacingAndGlyphs"
text-anchor="end" opacity="0">UTx</text>
<path d="M41570 32720
L41570 33130
L41600 33170
L41620 33200
L41670 33220
L41770 33220
L41810 33200
L41840 33170
L41860 33130
L41860 32720
" />
<path d="M42030 32720
L42310 32720
" />
<path d="M42170 33220
L42170 32720
" />
<path d="M42430 33220
L42690 32890
" />
<path d="M42430 32890
L42690 33220
" />
</g>
<g style="fill:#840000; fill-opacity:0.0; 
stroke:#840000; stroke-width:60; stroke-opacity:1; 
stroke-linecap:round; stroke-linejoin:round;">
<text x="43500" y="32900"
textLength="540" font-size="660" lengthAdjust="spacingAndGlyphs"
text-anchor="middle" opacity="0">6</text>
<path d="M43590 32370
L43500 32370
L43450 32400
L43420 32420
L43380 32490
L43350 32590
L43350 32780
L43380 32820
L43400 32850
L43450 32870
L43540 32870
L43590 32850
L43610 32820
L43640 32780
L43640 32660
L43610 32610
L43590 32590
L43540 32560
L43450 32560
L43400 32590
L43380 32610
L43350 32660
" />
<path d="M43000 37000
L44000 37000
" />
</g>
<g style="fill:#008484; fill-opacity:0.0; 
stroke:#008484; stroke-width:60; stroke-opacity:1; 
stroke-linecap:round; stroke-linejoin:round;">
<text x="42800" y="37250"
textLength="1540" font-size="660" lengthAdjust="spacingAndGlyphs"
text-anchor="end" opacity="0">GP2</text>
<path d="M41670 36750
L41620 36720
L41550 36720
L41480 36750
L41430 36790
L41410 36840
L41380 36940
L41380 37010
L41410 37100
L41430 37150
L41480 37200
L41550 37220
L41600 37220
L41670 37200
L41690 37170
L41690 37010
L41600 37010
" />
<path d="M41910 37220
L41910 36720
L42100 36720
L42150 36750
L42170 36770
L42190 36820
L42190 36890
L42170 36940
L42150 36960
L42100 36980
L41910 36980
" />
<path d="M42380 36770
L42410 36750
L42460 36720
L42570 36720
L42620 36750
L42650 36770
L42670 36820
L42670 36860
L42650 36940
L42360 37220
L42670 37220
" />
</g>
<g style="fill:#840000; fill-opacity:0.0; 
stroke:#840000; stroke-width:60; stroke-opacity:1; 
stroke-linecap:round; stroke-linejoin:round;">
<text x="43500" y="36900"
textLength="540" font-size="660" lengthAdjust="spacingAndGlyphs"
text-anchor="middle" opacity="0">7</text>
<path d="M43330 36370
L43660 36370
L43450 36870
" />
<path d="M43000 38000
L44000 38000
" />
</g>
<g style="fill:#008484; fill-opacity:0.0; 
stroke:#008484; stroke-width:60; stroke-opacity:1; 
stroke-linecap:round; stroke-linejoin:round;">
<text x="42800" y="38250"
textLength="1540" font-size="660" lengthAdjust="spacingAndGlyphs"
text-anchor="end" opacity="0">GP3</text>
<path d="M41670 37750
L41620 37720
L41550 37720
L41480 37750
L41430 37790
L41410 37840
L41380 37940
L41380 38010
L41410 38100
L41430 38150
L41480 38200
L41550 38220
L41600 38220
L41670 38200
L41690 38170
L41690 38010
L41600 38010
" />
<path d="M41910 38220
L41910 37720
L42100 37720
L42150 37750
L42170 37770
L42190 37820
L42190 37890
L42170 37940
L42150 37960
L42100 37980
L41910 37980
" />
<path d="M42360 37720
L42670 37720
L42500 37910
L42570 37910
L42620 37940
L42650 37960
L42670 38010
L42670 38130
L42650 38170
L42620 38200
L42570 38220
L42430 38220
L42380 38200
L42360 38170
" />
</g>
<g style="fill:#840000; fill-opacity:0.0; 
stroke:#840000; stroke-width:60; stroke-opacity:1; 
stroke-linecap:round; stroke-linejoin:round;">
<text x="43500" y="37900"
textLength="540" font-size="660" lengthAdjust="spacingAndGlyphs"
text-anchor="middle" opacity="0">8</text>
<path d="M43450 37590
L43400 37560
L43380 37540
L43350 37490
L43350 37470
L43380 37420
L43400 37400
L43450 37370
L43540 37370
L43590 37400
L43610 37420
L43640 37470
L43640 37490
L43610 37540
L43590 37560
L43540 37590
L43450 37590
L43400 37610
L43380 37630
L43350 37680
L43350 37780
L43380 37820
L43400 37850
L43450 37870
L43540 37870
L43590 37850
L43610 37820
L43640 37780
L43640 37680
L43610 37630
L43590 37610
L43540 37590
" />
<path d="M43000 29000
L44000 29000
" />
</g>
<g style="fill:#008484; fill-opacity:0.0; 
stroke:#008484; stroke-width:60; stroke-opacity:1; 
stroke-linecap:round; stroke-linejoin:round;">
<text x="42800" y="29250"
textLength="1460" font-size="660" lengthAdjust="spacingAndGlyphs"
text-anchor="end" opacity="0">SDA</text>
<path d="M41460 29200
L41530 29220
L41650 29220
L41690 29200
L41720 29170
L41740 29130
L41740 29080
L41720 29030
L41690 29010
L41650 28980
L41550 28960
L41500 28940
L41480 28910
L41460 28860
L41460 28820
L41480 28770
L41500 28750
L41550 28720
L41670 28720
L41740 28750
" />
<path d="M41960 29220
L41960 28720
L42070 28720
L42150 28750
L42190 28790
L42220 28840
L42240 28940
L42240 29010
L42220 29100
L42190 29150
L42150 29200
L42070 29220
L41960 29220
" />
<path d="M42430 29080
L42670 29080
" />
<path d="M42380 29220
L42550 28720
L42720 29220
" />
</g>
<g style="fill:#840000; fill-opacity:0.0; 
stroke:#840000; stroke-width:60; stroke-opacity:1; 
stroke-linecap:round; stroke-linejoin:round;">
<text x="43500" y="28900"
textLength="540" font-size="660" lengthAdjust="spacingAndGlyphs"
text-anchor="middle" opacity="0">9</text>
<path d="M43400 28870
L43500 28870
L43540 28850
L43570 28820
L43610 28750
L43640 28660
L43640 28470
L43610 28420
L43590 28400
L43540 28370
L43450 28370
L43400 28400
L43380 28420
L43350 28470
L43350 28590
L43380 28630
L43400 28660
L43450 28680
L43540 28680
L43590 28660
L43610 28630
L43640 28590
" />
</g>
<g style="fill:#008484; fill-opacity:0.0; 
stroke:#008484; stroke-width:60; stroke-opacity:1; 
stroke-linecap:round; stroke-linejoin:round;">
<text x="37500" y="27270"
textLength="1060" font-size="660" lengthAdjust="spacingAndGlyphs"
text-anchor="middle" opacity="0">U2</text>
<path d="M37110 26740
L37110 27150
L37140 27190
L37160 27220
L37210 27240
L37300 27240
L37350 27220
L37380 27190
L37400 27150
L37400 26740
" />
<path d="M37610 26790
L37640 26770
L37690 26740
L37800 26740
L37850 26770
L37880 26790
L37900 26840
L37900 26880
L37880 26960
L37590 27240
L37900 27240
" />
<text x="43000" y="39770"
textLength="4870" font-size="660" lengthAdjust="spacingAndGlyphs"
text-anchor="middle" opacity="0">MCP2221AxP</text>
<path d="M40710 39740
L40710 39240
L40880 39600
L41040 39240
L41040 39740
" />
<path d="M41570 39690
L41540 39720
L41470 39740
L41420 39740
L41350 39720
L41300 39670
L41280 39620
L41260 39530
L41260 39460
L41280 39360
L41300 39310
L41350 39270
L41420 39240
L41470 39240
L41540 39270
L41570 39290
" />
<path d="M41780 39740
L41780 39240
L41970 39240
L42020 39270
L42040 39290
L42070 39340
L42070 39410
L42040 39460
L42020 39480
L41970 39500
L41780 39500
" />
<path d="M42260 39290
L42280 39270
L42330 39240
L42450 39240
L42500 39270
L42520 39290
L42540 39340
L42540 39380
L42520 39460
L42230 39740
L42540 39740
" />
<path d="M42730 39290
L42760 39270
L42800 39240
L42920 39240
L42970 39270
L43000 39290
L43020 39340
L43020 39380
L43000 39460
L42710 39740
L43020 39740
" />
<path d="M43210 39290
L43230 39270
L43280 39240
L43400 39240
L43450 39270
L43470 39290
L43500 39340
L43500 39380
L43470 39460
L43190 39740
L43500 39740
" />
<path d="M43970 39740
L43690 39740
" />
<path d="M43830 39740
L43830 39240
L43780 39310
L43730 39360
L43690 39380
" />
<path d="M44160 39600
L44400 39600
" />
<path d="M44110 39740
L44280 39240
L44450 39740
" />
<path d="M44570 39740
L44830 39410
" />
<path d="M44570 39410
L44830 39740
" />
<path d="M45020 39740
L45020 39240
L45210 39240
L45260 39270
L45280 39290
L45300 39340
L45300 39410
L45280 39460
L45260 39480
L45210 39500
L45020 39500
" />
</g>
</g>
<g style="fill:#008484; fill-opacity:0.0; 
stroke:#008484; stroke-width:0; stroke-opacity:1; 
stroke-linecap:round; stroke-linejoin:round;">
<g >
</g>
<g style="fill:#840000; fill-opacity:0.0; 
stroke:#840000; stroke-width:0; stroke-opacity:1; 
stroke-linecap:round; stroke-linejoin:round;">
</g>
<g style="fill:#840000; fill-opacity:0.0; 
stroke:#840000; stroke-width:60; stroke-opacity:1; 
stroke-linecap:round; stroke-linejoin:round;">
<circle cx="79300" cy="27000" r="200" /> 
<circle cx="77700" cy="26000" r="200" /> 
<circle cx="77700" cy="28000" r="200" /> 
<path style="fill:#840000; fill-opacity:0.0; 
stroke:#840000; stroke-width:60; stroke-opacity:1; 
stroke-linecap:round; stroke-linejoin:round;fill:none"
d="M 79100,27100
77850,27900
" /> 
<path d="M77500 28000
L76500 28000
" />
<text x="77000" y="28600"
textLength="540" font-size="660" lengthAdjust="spacingAndGlyphs"
text-anchor="middle" opacity="0">1</text>
<path d="M77140 28570
L76850 28570
" />
<path d="M77000 28570
L77000 28070
L76950 28140
L76900 28190
L76850 28210
" />
<path d="M79500 27000
L80500 27000
" />
<text x="80000" y="27600"
textLength="540" font-size="660" lengthAdjust="spacingAndGlyphs"
text-anchor="middle" opacity="0">2</text>
<path d="M79850 27120
L79880 27100
L79920 27070
L80040 27070
L80090 27100
L80110 27120
L80140 27170
L80140 27210
L80110 27290
L79830 27570
L80140 27570
" />
<path d="M77500 26000
L76500 26000
" />
<text x="77000" y="26600"
textLength="540" font-size="660" lengthAdjust="spacingAndGlyphs"
text-anchor="middle" opacity="0">3</text>
<path d="M76830 26070
L77140 26070
L76970 26260
L77040 26260
L77090 26290
L77110 26310
L77140 26360
L77140 26480
L77110 26520
L77090 26550
L77040 26570
L76900 26570
L76850 26550
L76830 26520
" />
</g>
<g style="fill:#008484; fill-opacity:0.0; 
stroke:#008484; stroke-width:60; stroke-opacity:1; 
stroke-linecap:round; stroke-linejoin:round;">
<text x="78500" y="23970"
textLength="1580" font-size="660" lengthAdjust="spacingAndGlyphs"
text-anchor="middle" opacity="0">SW2</text>
<path d="M77830 23920
L77900 23940
L78020 23940
L78070 23920
L78090 23890
L78110 23850
L78110 23800
L78090 23750
L78070 23730
L78020 23700
L77920 23680
L77880 23660
L77850 23630
L77830 23580
L77830 23540
L77850 23490
L77880 23470
L77920 23440
L78040 23440
L78110 23470
" />
<path d="M78280 23440
L78400 23940
L78500 23580
L78590 23940
L78710 23440
" />
<path d="M78880 23490
L78900 23470
L78950 23440
L79070 23440
L79110 23470
L79140 23490
L79160 23540
L79160 23580
L79140 23660
L78850 23940
L79160 23940
" />
<text x="78490" y="24880"
textLength="3350" font-size="660" lengthAdjust="spacingAndGlyphs"
text-anchor="middle" opacity="0">SW_SPDT</text>
<path d="M76940 24830
L77010 24850
L77130 24850
L77180 24830
L77200 24800
L77220 24760
L77220 24710
L77200 24660
L77180 24640
L77130 24610
L77030 24590
L76990 24570
L76960 24540
L76940 24490
L76940 24450
L76960 24400
L76990 24380
L77030 24350
L77150 24350
L77220 24380
" />
<path d="M77390 24350
L77510 24850
L77600 24490
L77700 24850
L77820 24350
" />
<path d="M77890 24900
L78270 24900
" />
<path d="M78370 24830
L78440 24850
L78560 24850
L78600 24830
L78630 24800
L78650 24760
L78650 24710
L78630 24660
L78600 24640
L78560 24610
L78460 24590
L78410 24570
L78390 24540
L78370 24490
L78370 24450
L78390 24400
L78410 24380
L78460 24350
L78580 24350
L78650 24380
" />
<path d="M78870 24850
L78870 24350
L79060 24350
L79100 24380
L79130 24400
L79150 24450
L79150 24520
L79130 24570
L79100 24590
L79060 24610
L78870 24610
" />
<path d="M79370 24850
L79370 24350
L79490 24350
L79560 24380
L79600 24420
L79630 24470
L79650 24570
L79650 24640
L79630 24730
L79600 24780
L79560 24830
L79490 24850
L79370 24850
" />
<path d="M79790 24350
L80080 24350
" />
<path d="M79940 24850
L79940 24350
" />
</g>
</g>
<g style="fill:#008484; fill-opacity:0.0; 
stroke:#008484; stroke-width:0; stroke-opacity:1; 
stroke-linecap:round; stroke-linejoin:round;">
<g >
</g>
<g style="fill:#840000; fill-opacity:0.0; 
stroke:#840000; stroke-width:0; stroke-opacity:1; 
stroke-linecap:round; stroke-linejoin:round;">
</g>
<g style="fill:#840000; fill-opacity:0.0; 
stroke:#840000; stroke-width:100; stroke-opacity:1; 
stroke-linecap:round; stroke-linejoin:round;">
<path style="fill:#840000; fill-opacity:0.0; 
stroke:#840000; stroke-width:100; stroke-opacity:1; 
stroke-linecap:round; stroke-linejoin:round;fill:none"
d="M 84500,33500
83500,33500
" /> 
</g>
<g style="fill:#840000; fill-opacity:0.0; 
stroke:#840000; stroke-width:60; stroke-opacity:1; 
stroke-linecap:round; stroke-linejoin:round;">
<path style="fill:#840000; fill-opacity:0.0; 
stroke:#840000; stroke-width:60; stroke-opacity:1; 
stroke-linecap:round; stroke-linejoin:round;fill:none"
d="M 84000,33500
84000,32500
" /> 
</g>
<g style="fill:#840000; fill-opacity:0.0; 
stroke:#840000; stroke-width:100; stroke-opacity:1; 
stroke-linecap:round; stroke-linejoin:round;">
<path style="fill:#840000; fill-opacity:0.0; 
stroke:#840000; stroke-width:100; stroke-opacity:1; 
stroke-linecap:round; stroke-linejoin:round;fill:none"
d="M 84500,32500
83500,32500
84000,33500
Z" /> 
</g>
<g style="fill:#840000; fill-opacity:0.0; 
stroke:#840000; stroke-width:60; stroke-opacity:1; 
stroke-linecap:round; stroke-linejoin:round;">
<path style="fill:#840000; fill-opacity:0.0; 
stroke:#840000; stroke-width:60; stroke-opacity:1; 
stroke-linecap:round; stroke-linejoin:round;fill:none"
d="M 84300,34200
84900,34800
84900,34500
84900,34800
84600,34800
" /> 
<path style="fill:#840000; fill-opacity:0.0; 
stroke:#840000; stroke-width:60; stroke-opacity:1; 
stroke-linecap:round; stroke-linejoin:round;fill:none"
d="M 84300,33700
84900,34300
84900,34000
84900,34300
84600,34300
" /> 
<path d="M84000 33500
L84000 34500
" />
<path d="M84000 32500
L84000 31500
" />
</g>
<g style="fill:#008484; fill-opacity:0.0; 
stroke:#008484; stroke-width:60; stroke-opacity:1; 
stroke-linecap:round; stroke-linejoin:round;">
<text x="85700" y="32830"
textLength="1040" font-size="660" lengthAdjust="spacingAndGlyphs"
text-anchor="middle" opacity="0">D2</text>
<path d="M85330 32800
L85330 32300
L85450 32300
L85520 32330
L85560 32370
L85590 32420
L85610 32520
L85610 32590
L85590 32680
L85560 32730
L85520 32780
L85450 32800
L85330 32800
" />
<path d="M85800 32350
L85830 32330
L85870 32300
L85990 32300
L86040 32330
L86060 32350
L86090 32400
L86090 32440
L86060 32520
L85780 32800
L86090 32800
" />
<text x="85890" y="33740"
textLength="1420" font-size="660" lengthAdjust="spacingAndGlyphs"
text-anchor="middle" opacity="0">LED</text>
<path d="M85560 33710
L85330 33710
L85330 33210
" />
<path d="M85730 33450
L85900 33450
" />
<path d="M85970 33710
L85730 33710
L85730 33210
L85970 33210
" />
<path d="M86180 33710
L86180 33210
L86300 33210
L86370 33240
L86420 33280
L86440 33330
L86470 33430
L86470 33500
L86440 33590
L86420 33640
L86370 33690
L86300 33710
L86180 33710
" />
</g>
</g>
<g style="fill:#008484; fill-opacity:0.0; 
stroke:#008484; stroke-width:0; stroke-opacity:1; 
stroke-linecap:round; stroke-linejoin:round;">
<g >
</g>
<g style="fill:#840000; fill-opacity:0.0; 
stroke:#840000; stroke-width:0; stroke-opacity:1; 
stroke-linecap:round; stroke-linejoin:round;">
</g>
<g style="fill:#840000; fill-opacity:0.0; 
stroke:#840000; stroke-width:60; stroke-opacity:1; 
stroke-linecap:round; stroke-linejoin:round;">
<path style="fill:#840000; fill-opacity:0.0; 
stroke:#840000; stroke-width:60; stroke-opacity:1; 
stroke-linecap:round; stroke-linejoin:round;fill:none"
d="M 84000,37000
84000,37500
84500,37500
84000,38000
83500,37500
84000,37500
" /> 
</g>
<g style="fill:#008484; fill-opacity:0.0; 
stroke:#008484; stroke-width:60; stroke-opacity:1; 
stroke-linecap:round; stroke-linejoin:round;">
<text x="84050" y="39000"
textLength="1580" font-size="660" lengthAdjust="spacingAndGlyphs"
text-anchor="middle" opacity="0">GND</text>
<path d="M83660 38500
L83620 38470
L83550 38470
L83470 38500
L83430 38540
L83400 38590
L83380 38690
L83380 38760
L83400 38850
L83430 38900
L83470 38950
L83550 38970
L83590 38970
L83660 38950
L83690 38920
L83690 38760
L83590 38760
" />
<path d="M83900 38970
L83900 38470
L84190 38970
L84190 38470
" />
<path d="M84430 38970
L84430 38470
L84550 38470
L84620 38500
L84660 38540
L84690 38590
L84710 38690
L84710 38760
L84690 38850
L84660 38900
L84620 38950
L84550 38970
L84430 38970
" />
</g>
</g>
<g style="fill:#008484; fill-opacity:0.0; 
stroke:#008484; stroke-width:0; stroke-opacity:1; 
stroke-linecap:round; stroke-linejoin:round;">
<g >
</g>
<g style="fill:#840000; fill-opacity:0.0; 
stroke:#840000; stroke-width:0; stroke-opacity:1; 
stroke-linecap:round; stroke-linejoin:round;">
</g>
<g style="fill:#840000; fill-opacity:0.0; 
stroke:#840000; stroke-width:100; stroke-opacity:1; 
stroke-linecap:round; stroke-linejoin:round;">
<rect x="83600" y="28000" width="800" height="2000" rx="0" />
</g>
<g style="fill:#840000; fill-opacity:0.0; 
stroke:#840000; stroke-width:60; stroke-opacity:1; 
stroke-linecap:round; stroke-linejoin:round;">
<path d="M84000 28000
L84000 27500
" />
<path d="M84000 30000
L84000 30500
" />
</g>
<g style="fill:#008484; fill-opacity:0.0; 
stroke:#008484; stroke-width:60; stroke-opacity:1; 
stroke-linecap:round; stroke-linejoin:round;">
<text x="83020" y="28770"
textLength="1040" font-size="660" lengthAdjust="spacingAndGlyphs"
text-anchor="middle" opacity="0">R5</text>
<path d="M82930 28740
L82770 28500
" />
<path d="M82650 28740
L82650 28240
L82840 28240
L82880 28270
L82910 28290
L82930 28340
L82930 28410
L82910 28460
L82880 28480
L82840 28500
L82650 28500
" />
<path d="M83380 28240
L83150 28240
L83120 28480
L83150 28460
L83190 28430
L83310 28430
L83360 28460
L83380 28480
L83410 28530
L83410 28650
L83380 28690
L83360 28720
L83310 28740
L83190 28740
L83150 28720
L83120 28690
" />
<text x="82490" y="29770"
textLength="1990" font-size="660" lengthAdjust="spacingAndGlyphs"
text-anchor="middle" opacity="0">220R</text>
<path d="M81620 29290
L81640 29270
L81690 29240
L81810 29240
L81850 29270
L81880 29290
L81900 29340
L81900 29380
L81880 29460
L81590 29740
L81900 29740
" />
<path d="M82090 29290
L82120 29270
L82160 29240
L82280 29240
L82330 29270
L82350 29290
L82380 29340
L82380 29380
L82350 29460
L82070 29740
L82380 29740
" />
<path d="M82690 29240
L82740 29240
L82780 29270
L82810 29290
L82830 29340
L82850 29430
L82850 29550
L82830 29650
L82810 29690
L82780 29720
L82740 29740
L82690 29740
L82640 29720
L82620 29690
L82590 29650
L82570 29550
L82570 29430
L82590 29340
L82620 29290
L82640 29270
L82690 29240
" />
<path d="M83350 29740
L83190 29500
" />
<path d="M83070 29740
L83070 29240
L83260 29240
L83310 29270
L83330 29290
L83350 29340
L83350 29410
L83330 29460
L83310 29480
L83260 29500
L83070 29500
" />
</g>
</g>
<g style="fill:#008484; fill-opacity:0.0; 
stroke:#008484; stroke-width:0; stroke-opacity:1; 
stroke-linecap:round; stroke-linejoin:round;">
<g >
</g>
<g style="fill:#840000; fill-opacity:0.0; 
stroke:#840000; stroke-width:0; stroke-opacity:1; 
stroke-linecap:round; stroke-linejoin:round;">
</g>
<g style="fill:#FFFFC2; fill-opacity:0.0; 
stroke:#FFFFC2; stroke-width:0; stroke-opacity:1; 
stroke-linecap:round; stroke-linejoin:round;">
</g>
<g style="fill:#FFFFC2; fill-opacity:0.6; 
stroke:#FFFFC2; stroke-width:0; stroke-opacity:1; 
stroke-linecap:round; stroke-linejoin:round;">
<rect x="71000" y="33000" width="2000" height="3000" rx="0" />
</g>
<g style="fill:#840000; fill-opacity:0.6; 
stroke:#840000; stroke-width:0; stroke-opacity:1; 
stroke-linecap:round; stroke-linejoin:round;">
</g>
<g style="fill:#840000; fill-opacity:0.0; 
stroke:#840000; stroke-width:100; stroke-opacity:1; 
stroke-linecap:round; stroke-linejoin:round;">
<rect x="71000" y="33000" width="2000" height="3000" rx="0" />
</g>
<g style="fill:#840000; fill-opacity:0.0; 
stroke:#840000; stroke-width:60; stroke-opacity:1; 
stroke-linecap:round; stroke-linejoin:round;">
<rect x="71000" y="35450" width="500" height="100" rx="0" />
<rect x="71000" y="33450" width="500" height="100" rx="0" />
</g>
<g style="fill:#840000; fill-opacity:0.0; 
stroke:#840000; stroke-width:100; stroke-opacity:1; 
stroke-linecap:round; stroke-linejoin:round;">
<rect x="71000" y="33000" width="2000" height="3000" rx="0" />
</g>
<g style="fill:#840000; fill-opacity:0.0; 
stroke:#840000; stroke-width:60; stroke-opacity:1; 
stroke-linecap:round; stroke-linejoin:round;">
<rect x="71000" y="34450" width="500" height="100" rx="0" />
<rect x="72500" y="35450" width="500" height="100" rx="0" />
<rect x="72500" y="33450" width="500" height="100" rx="0" />
<rect x="72500" y="34450" width="500" height="100" rx="0" />
<path d="M71000 33500
L69500 33500
" />
<text x="70250" y="33400"
textLength="540" font-size="660" lengthAdjust="spacingAndGlyphs"
text-anchor="middle" opacity="0">1</text>
<path d="M70390 33370
L70100 33370
" />
<path d="M70250 33370
L70250 32870
L70200 32940
L70150 32990
L70100 33010
" />
<path d="M71000 34500
L69500 34500
" />
<text x="70250" y="34400"
textLength="540" font-size="660" lengthAdjust="spacingAndGlyphs"
text-anchor="middle" opacity="0">2</text>
<path d="M70100 33920
L70130 33900
L70170 33870
L70290 33870
L70340 33900
L70360 33920
L70390 33970
L70390 34010
L70360 34090
L70080 34370
L70390 34370
" />
<path d="M71000 35500
L69500 35500
" />
<text x="70250" y="35400"
textLength="540" font-size="660" lengthAdjust="spacingAndGlyphs"
text-anchor="middle" opacity="0">3</text>
<path d="M70080 34870
L70390 34870
L70220 35060
L70290 35060
L70340 35090
L70360 35110
L70390 35160
L70390 35280
L70360 35320
L70340 35350
L70290 35370
L70150 35370
L70100 35350
L70080 35320
" />
<path d="M73000 35500
L74500 35500
" />
<text x="73750" y="35400"
textLength="540" font-size="660" lengthAdjust="spacingAndGlyphs"
text-anchor="middle" opacity="0">4</text>
<path d="M73840 35040
L73840 35370
" />
<path d="M73720 34850
L73600 35200
L73910 35200
" />
<path d="M73000 34500
L74500 34500
" />
<text x="73750" y="34400"
textLength="540" font-size="660" lengthAdjust="spacingAndGlyphs"
text-anchor="middle" opacity="0">5</text>
<path d="M73860 33870
L73630 33870
L73600 34110
L73630 34090
L73670 34060
L73790 34060
L73840 34090
L73860 34110
L73890 34160
L73890 34280
L73860 34320
L73840 34350
L73790 34370
L73670 34370
L73630 34350
L73600 34320
" />
<path d="M73000 33500
L74500 33500
" />
<text x="73750" y="33400"
textLength="540" font-size="660" lengthAdjust="spacingAndGlyphs"
text-anchor="middle" opacity="0">6</text>
<path d="M73840 32870
L73750 32870
L73700 32900
L73670 32920
L73630 32990
L73600 33090
L73600 33280
L73630 33320
L73650 33350
L73700 33370
L73790 33370
L73840 33350
L73860 33320
L73890 33280
L73890 33160
L73860 33110
L73840 33090
L73790 33060
L73700 33060
L73650 33090
L73630 33110
L73600 33160
" />
</g>
<g style="fill:#008484; fill-opacity:0.0; 
stroke:#008484; stroke-width:60; stroke-opacity:1; 
stroke-linecap:round; stroke-linejoin:round;">
<text x="72000" y="32270"
textLength="920" font-size="660" lengthAdjust="spacingAndGlyphs"
text-anchor="middle" opacity="0">J3</text>
<path d="M71830 31740
L71830 32100
L71800 32170
L71760 32220
L71690 32240
L71640 32240
" />
<path d="M72020 31740
L72330 31740
L72160 31930
L72230 31930
L72280 31960
L72300 31980
L72330 32030
L72330 32150
L72300 32190
L72280 32220
L72230 32240
L72090 32240
L72040 32220
L72020 32190
" />
<text x="73500" y="39770"
textLength="11890" font-size="660" lengthAdjust="spacingAndGlyphs"
text-anchor="middle" opacity="0">Conn_02x03_Counter_Clockwise</text>
<path d="M67980 39690
L67960 39720
L67890 39740
L67840 39740
L67770 39720
L67720 39670
L67700 39620
L67670 39530
L67670 39460
L67700 39360
L67720 39310
L67770 39270
L67840 39240
L67890 39240
L67960 39270
L67980 39290
" />
<path d="M68270 39740
L68220 39720
L68200 39690
L68170 39650
L68170 39500
L68200 39460
L68220 39430
L68270 39410
L68340 39410
L68390 39430
L68410 39460
L68440 39500
L68440 39650
L68410 39690
L68390 39720
L68340 39740
L68270 39740
" />
<path d="M68650 39410
L68650 39740
" />
<path d="M68650 39460
L68670 39430
L68720 39410
L68790 39410
L68840 39430
L68860 39480
L68860 39740
" />
<path d="M69100 39410
L69100 39740
" />
<path d="M69100 39460
L69130 39430
L69170 39410
L69250 39410
L69290 39430
L69320 39480
L69320 39740
" />
<path d="M69440 39790
L69820 39790
" />
<path d="M70030 39240
L70080 39240
L70130 39270
L70150 39290
L70170 39340
L70200 39430
L70200 39550
L70170 39650
L70150 39690
L70130 39720
L70080 39740
L70030 39740
L69980 39720
L69960 39690
L69940 39650
L69910 39550
L69910 39430
L69940 39340
L69960 39290
L69980 39270
L70030 39240
" />
<path d="M70390 39290
L70410 39270
L70460 39240
L70580 39240
L70630 39270
L70650 39290
L70670 39340
L70670 39380
L70650 39460
L70360 39740
L70670 39740
" />
<path d="M70840 39740
L71100 39410
" />
<path d="M70840 39410
L71100 39740
" />
<path d="M71390 39240
L71440 39240
L71480 39270
L71510 39290
L71530 39340
L71550 39430
L71550 39550
L71530 39650
L71510 39690
L71480 39720
L71440 39740
L71390 39740
L71340 39720
L71320 39690
L71290 39650
L71270 39550
L71270 39430
L71290 39340
L71320 39290
L71340 39270
L71390 39240
" />
<path d="M71720 39240
L72030 39240
L71860 39430
L71940 39430
L71980 39460
L72010 39480
L72030 39530
L72030 39650
L72010 39690
L71980 39720
L71940 39740
L71790 39740
L71750 39720
L71720 39690
" />
<path d="M72130 39790
L72510 39790
" />
<path d="M72910 39690
L72890 39720
L72820 39740
L72770 39740
L72700 39720
L72650 39670
L72630 39620
L72600 39530
L72600 39460
L72630 39360
L72650 39310
L72700 39270
L72770 39240
L72820 39240
L72890 39270
L72910 39290
" />
<path d="M73200 39740
L73150 39720
L73130 39690
L73100 39650
L73100 39500
L73130 39460
L73150 39430
L73200 39410
L73270 39410
L73320 39430
L73340 39460
L73360 39500
L73360 39650
L73340 39690
L73320 39720
L73270 39740
L73200 39740
" />
<path d="M73790 39410
L73790 39740
" />
<path d="M73580 39410
L73580 39670
L73600 39720
L73650 39740
L73720 39740
L73770 39720
L73790 39690
" />
<path d="M74030 39410
L74030 39740
" />
<path d="M74030 39460
L74050 39430
L74100 39410
L74170 39410
L74220 39430
L74250 39480
L74250 39740
" />
<path d="M74410 39410
L74600 39410
" />
<path d="M74480 39240
L74480 39670
L74510 39720
L74550 39740
L74600 39740
" />
<path d="M74960 39720
L74910 39740
L74820 39740
L74770 39720
L74740 39670
L74740 39480
L74770 39430
L74820 39410
L74910 39410
L74960 39430
L74980 39480
L74980 39530
L74740 39570
" />
<path d="M75200 39740
L75200 39410
" />
<path d="M75200 39500
L75220 39460
L75240 39430
L75290 39410
L75340 39410
" />
<path d="M75390 39790
L75770 39790
" />
<path d="M76170 39690
L76150 39720
L76080 39740
L76030 39740
L75960 39720
L75910 39670
L75890 39620
L75860 39530
L75860 39460
L75890 39360
L75910 39310
L75960 39270
L76030 39240
L76080 39240
L76150 39270
L76170 39290
" />
<path d="M76460 39740
L76410 39720
L76390 39670
L76390 39240
" />
<path d="M76720 39740
L76670 39720
L76650 39690
L76630 39650
L76630 39500
L76650 39460
L76670 39430
L76720 39410
L76790 39410
L76840 39430
L76860 39460
L76890 39500
L76890 39650
L76860 39690
L76840 39720
L76790 39740
L76720 39740
" />
<path d="M77320 39720
L77270 39740
L77170 39740
L77130 39720
L77100 39690
L77080 39650
L77080 39500
L77100 39460
L77130 39430
L77170 39410
L77270 39410
L77320 39430
" />
<path d="M77530 39740
L77530 39240
" />
<path d="M77580 39550
L77720 39740
" />
<path d="M77720 39410
L77530 39600
" />
<path d="M77890 39410
L77980 39740
L78080 39500
L78170 39740
L78270 39410
" />
<path d="M78460 39740
L78460 39410
" />
<path d="M78460 39240
L78440 39270
L78460 39290
L78480 39270
L78460 39240
L78460 39290
" />
<path d="M78670 39720
L78720 39740
L78820 39740
L78860 39720
L78890 39670
L78890 39650
L78860 39600
L78820 39570
L78750 39570
L78700 39550
L78670 39500
L78670 39480
L78700 39430
L78750 39410
L78820 39410
L78860 39430
" />
<path d="M79290 39720
L79240 39740
L79150 39740
L79100 39720
L79080 39670
L79080 39480
L79100 39430
L79150 39410
L79240 39410
L79290 39430
L79320 39480
L79320 39530
L79080 39570
" />
</g>
</g>
<g style="fill:#008484; fill-opacity:0.0; 
stroke:#008484; stroke-width:60; stroke-opacity:1; 
stroke-linecap:round; stroke-linejoin:round;">
</g>
<g style="fill:#008400; fill-opacity:0.0; 
stroke:#008400; stroke-width:60; stroke-opacity:1; 
stroke-linecap:round; stroke-linejoin:round;">
<path d="M40000 26000
L54500 26000
" />
<path d="M84000 27500
L84000 27000
" />
<path d="M27000 34000
L30000 34000
" />
<path d="M33000 33000
L36000 33000
" />
<path d="M33000 34000
L36000 34000
" />
<path d="M28500 26000
L36000 26000
" />
<path d="M45500 33000
L44000 33000
" />
<path d="M44000 32000
L45500 32000
" />
<path d="M50000 31500
L50000 40500
" />
<path d="M41000 27000
L50000 27000
" />
<path d="M50000 27000
L50000 28500
" />
<path d="M54500 28000
L54500 26000
" />
<path d="M54500 32000
L54500 31000
" />
<path d="M27000 33000
L30000 33000
" />
<path d="M24000 40500
L40000 40500
" />
<path d="M40000 40500
L40000 40000
" />
<path d="M40000 40500
L50000 40500
" />
<path d="M75500 35500
L75500 36500
" />
<path d="M74500 35500
L75500 35500
" />
<path d="M59500 27000
L59500 26000
" />
<path d="M59500 31000
L59500 30000
" />
<path d="M74500 33500
L75500 33500
" />
<path d="M40000 40500
L40000 42500
" />
<path d="M27000 31000
L28500 31000
" />
<path d="M28500 31000
L28500 26000
" />
<path d="M68500 34500
L69500 34500
" />
<path d="M74500 34500
L75500 34500
" />
<path d="M75500 28000
L76500 28000
" />
<path d="M75500 28000
L75500 33500
" />
<path d="M80500 27000
L84000 27000
" />
<path d="M84000 34500
L84000 37000
" />
<path d="M84000 27000
L87000 27000
" />
<path d="M59500 26000
L76500 26000
" />
<path d="M68500 36500
L69000 36500
" />
<path d="M69000 36500
L69000 35500
" />
<path d="M69000 35500
L69500 35500
" />
<path d="M69500 33500
L68500 33500
" />
<path d="M44000 36000
L54500 36000
" />
<path d="M36000 29000
L36000 26000
" />
<path d="M36000 26000
L40000 26000
" />
<path d="M54500 26000
L59500 26000
" />
<path d="M40000 26000
L40000 27000
" />
<path d="M23000 37000
L23000 38000
" />
<path d="M23000 38000
L24000 38000
" />
<path d="M24000 38000
L24000 40500
" />
<path d="M24000 37000
L24000 38000
" />
<path d="M54500 36000
L54500 35000
" />
<path d="M84000 31500
L84000 30500
" />
</g>
<g style="fill:#848400; fill-opacity:0.0; 
stroke:#848400; stroke-width:60; stroke-opacity:1; 
stroke-linecap:round; stroke-linejoin:round;">
<text x="87600" y="27250"
textLength="2610" font-size="660" lengthAdjust="spacingAndGlyphs"
text-anchor="start" opacity="0">POWER</text>
<path d="M87740 27220
L87740 26720
L87930 26720
L87980 26750
L88010 26770
L88030 26820
L88030 26890
L88010 26940
L87980 26960
L87930 26980
L87740 26980
" />
<path d="M88340 26720
L88430 26720
L88480 26750
L88530 26790
L88550 26890
L88550 27050
L88530 27150
L88480 27200
L88430 27220
L88340 27220
L88290 27200
L88240 27150
L88220 27050
L88220 26890
L88240 26790
L88290 26750
L88340 26720
" />
<path d="M88720 26720
L88840 27220
L88930 26860
L89030 27220
L89150 26720
" />
<path d="M89340 26960
L89510 26960
" />
<path d="M89580 27220
L89340 27220
L89340 26720
L89580 26720
" />
<path d="M90080 27220
L89910 26980
" />
<path d="M89790 27220
L89790 26720
L89980 26720
L90030 26750
L90050 26770
L90080 26820
L90080 26890
L90050 26940
L90030 26960
L89980 26980
L89790 26980
" />
</g>
<g style="fill:#848400; fill-opacity:0.0; 
stroke:#848400; stroke-width:100; stroke-opacity:1; 
stroke-linecap:round; stroke-linejoin:round;">
<path style="fill:#848400; fill-opacity:0.0; 
stroke:#848400; stroke-width:100; stroke-opacity:1; 
stroke-linecap:round; stroke-linejoin:round;fill:none"
d="M 87500,27000
87250,26750
87000,26750
87000,27250
87250,27250
Z" /> 
</g>
<g style="fill:#848400; fill-opacity:0.0; 
stroke:#848400; stroke-width:60; stroke-opacity:1; 
stroke-linecap:round; stroke-linejoin:round;">
</g>
<g style="fill:#840000; fill-opacity:0.0; 
stroke:#840000; stroke-width:60; stroke-opacity:1; 
stroke-linecap:round; stroke-linejoin:round;">
<text x="45810" y="32250"
textLength="1420" font-size="660" lengthAdjust="spacingAndGlyphs"
text-anchor="start" opacity="0">TXD</text>
<path d="M45880 31720
L46170 31720
" />
<path d="M46030 32220
L46030 31720
" />
<path d="M46290 31720
L46620 32220
" />
<path d="M46620 31720
L46290 32220
" />
<path d="M46810 32220
L46810 31720
L46930 31720
L47000 31750
L47050 31790
L47070 31840
L47100 31940
L47100 32010
L47070 32100
L47050 32150
L47000 32200
L46930 32220
L46810 32220
" />
</g>
<g style="fill:#840000; fill-opacity:0.0; 
stroke:#840000; stroke-width:100; stroke-opacity:1; 
stroke-linecap:round; stroke-linejoin:round;">
<path style="fill:#840000; fill-opacity:0.0; 
stroke:#840000; stroke-width:100; stroke-opacity:1; 
stroke-linecap:round; stroke-linejoin:round;fill:none"
d="M 45500,32000
45750,32440
47340,32440
47340,32000
47340,31560
45750,31560
Z" /> 
</g>
<g style="fill:#840000; fill-opacity:0.0; 
stroke:#840000; stroke-width:60; stroke-opacity:1; 
stroke-linecap:round; stroke-linejoin:round;">
<text x="75810" y="34750"
textLength="1870" font-size="660" lengthAdjust="spacingAndGlyphs"
text-anchor="start" opacity="0">MOSI</text>
<path d="M75950 34720
L75950 34220
L76120 34580
L76290 34220
L76290 34720
" />
<path d="M76620 34220
L76720 34220
L76760 34250
L76810 34290
L76840 34390
L76840 34550
L76810 34650
L76760 34700
L76720 34720
L76620 34720
L76570 34700
L76530 34650
L76500 34550
L76500 34390
L76530 34290
L76570 34250
L76620 34220
" />
<path d="M77030 34700
L77100 34720
L77220 34720
L77260 34700
L77290 34670
L77310 34630
L77310 34580
L77290 34530
L77260 34510
L77220 34480
L77120 34460
L77070 34440
L77050 34410
L77030 34360
L77030 34320
L77050 34270
L77070 34250
L77120 34220
L77240 34220
L77310 34250
" />
<path d="M77530 34720
L77530 34220
" />
</g>
<g style="fill:#840000; fill-opacity:0.0; 
stroke:#840000; stroke-width:100; stroke-opacity:1; 
stroke-linecap:round; stroke-linejoin:round;">
<path style="fill:#840000; fill-opacity:0.0; 
stroke:#840000; stroke-width:100; stroke-opacity:1; 
stroke-linecap:round; stroke-linejoin:round;fill:none"
d="M 75500,34500
75750,34940
77790,34940
77790,34500
77790,34060
75750,34060
Z" /> 
</g>
<g style="fill:#840000; fill-opacity:0.0; 
stroke:#840000; stroke-width:60; stroke-opacity:1; 
stroke-linecap:round; stroke-linejoin:round;">
<text x="68190" y="33750"
textLength="1870" font-size="660" lengthAdjust="spacingAndGlyphs"
text-anchor="end" opacity="0">MISO</text>
<path d="M66460 33720
L66460 33220
L66630 33580
L66800 33220
L66800 33720
" />
<path d="M67040 33720
L67040 33220
" />
<path d="M67250 33700
L67320 33720
L67440 33720
L67490 33700
L67510 33670
L67540 33630
L67540 33580
L67510 33530
L67490 33510
L67440 33480
L67350 33460
L67300 33440
L67270 33410
L67250 33360
L67250 33320
L67270 33270
L67300 33250
L67350 33220
L67460 33220
L67540 33250
" />
<path d="M67850 33220
L67940 33220
L67990 33250
L68040 33290
L68060 33390
L68060 33550
L68040 33650
L67990 33700
L67940 33720
L67850 33720
L67800 33700
L67750 33650
L67730 33550
L67730 33390
L67750 33290
L67800 33250
L67850 33220
" />
</g>
<g style="fill:#840000; fill-opacity:0.0; 
stroke:#840000; stroke-width:100; stroke-opacity:1; 
stroke-linecap:round; stroke-linejoin:round;">
<path style="fill:#840000; fill-opacity:0.0; 
stroke:#840000; stroke-width:100; stroke-opacity:1; 
stroke-linecap:round; stroke-linejoin:round;fill:none"
d="M 68500,33500
68250,33060
66210,33060
66210,33500
66210,33940
68250,33940
Z" /> 
</g>
<g style="fill:#840000; fill-opacity:0.0; 
stroke:#840000; stroke-width:60; stroke-opacity:1; 
stroke-linecap:round; stroke-linejoin:round;">
<text x="45810" y="33250"
textLength="1540" font-size="660" lengthAdjust="spacingAndGlyphs"
text-anchor="start" opacity="0">RXD</text>
<path d="M46240 33220
L46070 32980
" />
<path d="M45950 33220
L45950 32720
L46140 32720
L46190 32750
L46220 32770
L46240 32820
L46240 32890
L46220 32940
L46190 32960
L46140 32980
L45950 32980
" />
<path d="M46410 32720
L46740 33220
" />
<path d="M46740 32720
L46410 33220
" />
<path d="M46930 33220
L46930 32720
L47050 32720
L47120 32750
L47170 32790
L47190 32840
L47220 32940
L47220 33010
L47190 33100
L47170 33150
L47120 33200
L47050 33220
L46930 33220
" />
</g>
<g style="fill:#840000; fill-opacity:0.0; 
stroke:#840000; stroke-width:100; stroke-opacity:1; 
stroke-linecap:round; stroke-linejoin:round;">
<path style="fill:#840000; fill-opacity:0.0; 
stroke:#840000; stroke-width:100; stroke-opacity:1; 
stroke-linecap:round; stroke-linejoin:round;fill:none"
d="M 45500,33000
45750,33440
47460,33440
47460,33000
47460,32560
45750,32560
Z" /> 
</g>
<g style="fill:#840000; fill-opacity:0.0; 
stroke:#840000; stroke-width:60; stroke-opacity:1; 
stroke-linecap:round; stroke-linejoin:round;">
<text x="68190" y="34750"
textLength="1540" font-size="660" lengthAdjust="spacingAndGlyphs"
text-anchor="end" opacity="0">SCK</text>
<path d="M66770 34700
L66850 34720
L66960 34720
L67010 34700
L67040 34670
L67060 34630
L67060 34580
L67040 34530
L67010 34510
L66960 34480
L66870 34460
L66820 34440
L66800 34410
L66770 34360
L66770 34320
L66800 34270
L66820 34250
L66870 34220
L66990 34220
L67060 34250
" />
<path d="M67560 34670
L67540 34700
L67460 34720
L67420 34720
L67350 34700
L67300 34650
L67270 34600
L67250 34510
L67250 34440
L67270 34340
L67300 34290
L67350 34250
L67420 34220
L67460 34220
L67540 34250
L67560 34270
" />
<path d="M67770 34720
L67770 34220
" />
<path d="M68060 34720
L67850 34440
" />
<path d="M68060 34220
L67770 34510
" />
</g>
<g style="fill:#840000; fill-opacity:0.0; 
stroke:#840000; stroke-width:100; stroke-opacity:1; 
stroke-linecap:round; stroke-linejoin:round;">
<path style="fill:#840000; fill-opacity:0.0; 
stroke:#840000; stroke-width:100; stroke-opacity:1; 
stroke-linecap:round; stroke-linejoin:round;fill:none"
d="M 68500,34500
68250,34060
66540,34060
66540,34500
66540,34940
68250,34940
Z" /> 
</g>
<g style="fill:#840000; fill-opacity:0.0; 
stroke:#840000; stroke-width:60; stroke-opacity:1; 
stroke-linecap:round; stroke-linejoin:round;">
<text x="68190" y="36750"
textLength="2320" font-size="660" lengthAdjust="spacingAndGlyphs"
text-anchor="end" opacity="0">~RESET</text>
<path d="M65890 36080
L66390 36080
" />
<path d="M66300 36720
L66130 36480
" />
<path d="M66010 36720
L66010 36220
L66200 36220
L66250 36250
L66270 36270
L66300 36320
L66300 36390
L66270 36440
L66250 36460
L66200 36480
L66010 36480
" />
<path d="M66390 36080
L66850 36080
" />
<path d="M66510 36460
L66680 36460
" />
<path d="M66750 36720
L66510 36720
L66510 36220
L66750 36220
" />
<path d="M66850 36080
L67320 36080
" />
<path d="M66940 36700
L67010 36720
L67130 36720
L67180 36700
L67200 36670
L67230 36630
L67230 36580
L67200 36530
L67180 36510
L67130 36480
L67040 36460
L66990 36440
L66960 36410
L66940 36360
L66940 36320
L66960 36270
L66990 36250
L67040 36220
L67160 36220
L67230 36250
" />
<path d="M67320 36080
L67770 36080
" />
<path d="M67440 36460
L67610 36460
" />
<path d="M67680 36720
L67440 36720
L67440 36220
L67680 36220
" />
<path d="M67770 36080
L68160 36080
" />
<path d="M67820 36220
L68110 36220
" />
<path d="M67960 36720
L67960 36220
" />
</g>
<g style="fill:#840000; fill-opacity:0.0; 
stroke:#840000; stroke-width:100; stroke-opacity:1; 
stroke-linecap:round; stroke-linejoin:round;">
<path style="fill:#840000; fill-opacity:0.0; 
stroke:#840000; stroke-width:100; stroke-opacity:1; 
stroke-linecap:round; stroke-linejoin:round;fill:none"
d="M 68500,36500
68250,35890
65760,35890
65760,36500
65760,37110
68250,37110
Z" /> 
</g>
<g style="fill:#840000; fill-opacity:0.0; 
stroke:#840000; stroke-width:60; stroke-opacity:1; 
stroke-linecap:round; stroke-linejoin:round;">
</g>
<g style="fill:#000000; fill-opacity:0.0; 
stroke:#000000; stroke-width:60; stroke-opacity:1; 
stroke-linecap:round; stroke-linejoin:round;">
<text x="43000" y="25900"
textLength="3130" font-size="660" lengthAdjust="spacingAndGlyphs"
text-anchor="start" opacity="0">USBPWR</text>
<path d="M43140 25370
L43140 25780
L43170 25820
L43190 25850
L43240 25870
L43330 25870
L43380 25850
L43410 25820
L43430 25780
L43430 25370
" />
<path d="M43640 25850
L43720 25870
L43830 25870
L43880 25850
L43910 25820
L43930 25780
L43930 25730
L43910 25680
L43880 25660
L43830 25630
L43740 25610
L43690 25590
L43670 25560
L43640 25510
L43640 25470
L43670 25420
L43690 25400
L43740 25370
L43860 25370
L43930 25400
" />
<path d="M44310 25610
L44380 25630
L44410 25660
L44430 25700
L44430 25780
L44410 25820
L44380 25850
L44330 25870
L44140 25870
L44140 25370
L44310 25370
L44360 25400
L44380 25420
L44410 25470
L44410 25510
L44380 25560
L44360 25590
L44310 25610
L44140 25610
" />
<path d="M44640 25870
L44640 25370
L44830 25370
L44880 25400
L44910 25420
L44930 25470
L44930 25540
L44910 25590
L44880 25610
L44830 25630
L44640 25630
" />
<path d="M45100 25370
L45220 25870
L45310 25510
L45410 25870
L45530 25370
" />
<path d="M46000 25870
L45830 25630
" />
<path d="M45720 25870
L45720 25370
L45910 25370
L45950 25400
L45980 25420
L46000 25470
L46000 25540
L45980 25590
L45950 25610
L45910 25630
L45720 25630
" />
</g>
<g style="fill:#000000; fill-opacity:0.0; 
stroke:#000000; stroke-width:0; stroke-opacity:1; 
stroke-linecap:round; stroke-linejoin:round;">
</g>
<g style="fill:#008400; fill-opacity:0.0; 
stroke:#008400; stroke-width:0; stroke-opacity:1; 
stroke-linecap:round; stroke-linejoin:round;">
</g>
<g style="fill:#008400; fill-opacity:1.0; 
stroke:#008400; stroke-width:100; stroke-opacity:1; 
stroke-linecap:round; stroke-linejoin:round;">
<circle cx="40000" cy="40500" r="200" /> 
</g>
<g style="fill:#008400; fill-opacity:1.0; 
stroke:#008400; stroke-width:0; stroke-opacity:1; 
stroke-linecap:round; stroke-linejoin:round;">
</g>
<g style="fill:#008400; fill-opacity:1.0; 
stroke:#008400; stroke-width:100; stroke-opacity:1; 
stroke-linecap:round; stroke-linejoin:round;">
<circle cx="36000" cy="26000" r="200" /> 
</g>
<g style="fill:#008400; fill-opacity:1.0; 
stroke:#008400; stroke-width:0; stroke-opacity:1; 
stroke-linecap:round; stroke-linejoin:round;">
</g>
<g style="fill:#008400; fill-opacity:1.0; 
stroke:#008400; stroke-width:100; stroke-opacity:1; 
stroke-linecap:round; stroke-linejoin:round;">
<circle cx="54500" cy="26000" r="200" /> 
</g>
<g style="fill:#008400; fill-opacity:1.0; 
stroke:#008400; stroke-width:0; stroke-opacity:1; 
stroke-linecap:round; stroke-linejoin:round;">
</g>
<g style="fill:#008400; fill-opacity:1.0; 
stroke:#008400; stroke-width:100; stroke-opacity:1; 
stroke-linecap:round; stroke-linejoin:round;">
<circle cx="24000" cy="38000" r="200" /> 
</g>
<g style="fill:#008400; fill-opacity:1.0; 
stroke:#008400; stroke-width:0; stroke-opacity:1; 
stroke-linecap:round; stroke-linejoin:round;">
</g>
<g style="fill:#008400; fill-opacity:1.0; 
stroke:#008400; stroke-width:100; stroke-opacity:1; 
stroke-linecap:round; stroke-linejoin:round;">
<circle cx="40000" cy="26000" r="200" /> 
</g>
<g style="fill:#008400; fill-opacity:1.0; 
stroke:#008400; stroke-width:0; stroke-opacity:1; 
stroke-linecap:round; stroke-linejoin:round;">
</g>
<g style="fill:#008400; fill-opacity:1.0; 
stroke:#008400; stroke-width:100; stroke-opacity:1; 
stroke-linecap:round; stroke-linejoin:round;">
<circle cx="59500" cy="26000" r="200" /> 
</g>
<g style="fill:#008400; fill-opacity:1.0; 
stroke:#008400; stroke-width:0; stroke-opacity:1; 
stroke-linecap:round; stroke-linejoin:round;">
</g>
<g style="fill:#008400; fill-opacity:1.0; 
stroke:#008400; stroke-width:100; stroke-opacity:1; 
stroke-linecap:round; stroke-linejoin:round;">
<circle cx="84000" cy="27000" r="200" /> 
</g> 
</svg>
